<svg width="387" height="278" viewBox="0 0 387 278" fill="none" xmlns="http://www.w3.org/2000/svg">
<rect x="1.76576" y="1.8998" width="359.116" height="274.729" rx="8.43876" stroke="#E94C3D" stroke-width="1.87528" stroke-dasharray="3.75 3.75"/>
<path d="M31.9004 122.353H38.8421C42.8017 122.353 45.1073 120.899 45.1073 117.641C45.1073 115.436 43.7289 114.208 41.8745 113.581C43.1525 112.855 44.0046 111.702 44.0046 109.948C44.0046 106.715 41.5737 105.311 37.7395 105.311H31.9004V122.353ZM38.792 114.609C41.1226 114.609 42.9771 115.486 42.9771 117.641C42.9771 119.821 41.1477 120.598 38.8421 120.598H33.9052V114.609H38.792ZM37.7395 107.066C40.045 107.066 41.8745 107.842 41.8745 109.948C41.8745 112.053 40.2956 113.005 37.9901 113.005H33.9052V107.066H37.7395ZM52.9377 122.603C55.3435 122.603 56.7469 121.651 57.5489 120.072L57.7243 122.353H59.3532V110.323H57.4737V115.386C57.4737 118.418 56.4211 120.974 53.5642 120.974C51.8601 120.974 50.3815 120.247 50.3815 117.666V110.323H48.502V117.666C48.4769 121.15 50.1309 122.603 52.9377 122.603ZM67.93 122.603C71.0375 122.603 72.9421 121.701 72.9421 119.07C72.9421 114.408 64.9729 116.814 64.9729 113.456C64.9729 112.328 66.0003 111.702 67.8799 111.702C69.8346 111.702 70.6365 112.353 70.7869 113.631H72.6664C72.491 111.401 71.0124 110.073 67.8799 110.073C65.0731 110.073 63.0432 111.1 63.0432 113.531C63.0432 118.619 71.0124 116.313 71.0124 119.145C71.0124 120.298 70.0852 120.974 67.9049 120.974C65.6745 120.974 64.8225 120.273 64.6972 118.919H62.7425C62.8678 121.225 64.3714 122.603 67.93 122.603ZM76.3329 122.353H78.2125V110.323H76.3329V122.353ZM78.2125 107.567V105.311H76.3329V107.567H78.2125ZM82.3435 122.353H84.2231V117.29C84.2231 114.258 85.3007 111.702 88.2077 111.702C89.9369 111.702 91.4405 112.429 91.4405 115.01V122.353H93.3201V115.01C93.3451 111.526 91.6661 110.073 88.8342 110.073C86.3783 110.073 84.9498 111.05 84.173 112.629L83.9725 110.323H82.3435V122.353ZM96.5811 116.338C96.5811 120.673 99.1372 122.603 102.621 122.603C105.352 122.603 107.407 121.45 108.184 118.894H106.154C105.503 120.373 104.199 120.974 102.621 120.974C99.9642 120.974 98.7363 119.195 98.5859 116.789H108.435V115.16C108.309 111.852 105.778 110.073 102.621 110.073C99.1372 110.073 96.5811 112.003 96.5811 116.338ZM98.6862 115.16C99.0119 113.13 100.24 111.702 102.621 111.702C104.751 111.702 106.405 112.955 106.405 115.16H98.6862ZM116.128 122.603C119.235 122.603 121.14 121.701 121.14 119.07C121.14 114.408 113.17 116.814 113.17 113.456C113.17 112.328 114.198 111.702 116.077 111.702C118.032 111.702 118.834 112.353 118.984 113.631H120.864C120.689 111.401 119.21 110.073 116.077 110.073C113.271 110.073 111.241 111.1 111.241 113.531C111.241 118.619 119.21 116.313 119.21 119.145C119.21 120.298 118.283 120.974 116.102 120.974C113.872 120.974 113.02 120.273 112.895 118.919H110.94C111.065 121.225 112.569 122.603 116.128 122.603ZM128.966 122.603C132.074 122.603 133.978 121.701 133.978 119.07C133.978 114.408 126.009 116.814 126.009 113.456C126.009 112.328 127.036 111.702 128.916 111.702C130.871 111.702 131.673 112.353 131.823 113.631H133.703C133.527 111.401 132.049 110.073 128.916 110.073C126.109 110.073 124.079 111.1 124.079 113.531C124.079 118.619 132.049 116.313 132.049 119.145C132.049 120.298 131.121 120.974 128.941 120.974C126.711 120.974 125.859 120.273 125.733 118.919H123.779C123.904 121.225 125.408 122.603 128.966 122.603ZM143.002 122.353H145.182L146.961 117.766H154.931L156.71 122.353H158.89L152.124 105.311H149.768L143.002 122.353ZM150.946 107.567L154.179 115.887H147.713L150.946 107.567ZM161.529 122.353H163.409V117.29C163.409 114.258 164.486 111.702 167.393 111.702C169.122 111.702 170.626 112.429 170.626 115.01V122.353H172.506V115.01C172.531 111.526 170.852 110.073 168.02 110.073C165.564 110.073 164.135 111.05 163.358 112.629L163.158 110.323H161.529V122.353ZM179.902 122.603C182.257 122.603 183.686 121.701 184.463 120.423C184.663 121.801 185.39 122.353 187.194 122.353H187.746V120.573H187.194C186.568 120.573 186.217 120.197 186.217 119.095V114.183C186.217 111.351 184.713 110.073 181.255 110.073C177.972 110.073 176.393 111.476 176.293 113.832H178.147C178.273 112.403 179.075 111.702 181.28 111.702C183.26 111.702 184.262 112.403 184.387 114.133C184.062 116.789 175.892 114.383 175.892 119.27C175.892 121.977 177.947 122.603 179.902 122.603ZM177.822 119.245C177.822 116.513 182.357 117.766 184.387 116.213V117.24C184.387 119.37 183.084 121.1 180.403 121.1C178.623 121.1 177.822 120.348 177.822 119.245ZM190.388 122.353H192.267V105.311H190.388V122.353ZM199.782 122.252L199.13 123.781C198.453 125.36 197.451 125.61 196.173 125.61V127.365H196.398C198.128 127.365 199.606 127.289 201.01 124.057L206.974 110.323H204.969L200.759 120.022L196.925 110.323H194.895L199.782 122.252ZM213.55 122.603C216.658 122.603 218.563 121.701 218.563 119.07C218.563 114.408 210.593 116.814 210.593 113.456C210.593 112.328 211.621 111.702 213.5 111.702C215.455 111.702 216.257 112.353 216.407 113.631H218.287C218.111 111.401 216.633 110.073 213.5 110.073C210.694 110.073 208.664 111.1 208.664 113.531C208.664 118.619 216.633 116.313 216.633 119.145C216.633 120.298 215.706 120.974 213.525 120.974C211.295 120.974 210.443 120.273 210.318 118.919H208.363C208.488 121.225 209.992 122.603 213.55 122.603ZM221.953 122.353H223.833V110.323H221.953V122.353ZM223.833 107.567V105.311H221.953V107.567H223.833ZM232.4 122.603C235.507 122.603 237.412 121.701 237.412 119.07C237.412 114.408 229.443 116.814 229.443 113.456C229.443 112.328 230.47 111.702 232.35 111.702C234.304 111.702 235.106 112.353 235.257 113.631H237.136C236.961 111.401 235.482 110.073 232.35 110.073C229.543 110.073 227.513 111.1 227.513 113.531C227.513 118.619 235.482 116.313 235.482 119.145C235.482 120.298 234.555 120.974 232.375 120.974C230.144 120.974 229.292 120.273 229.167 118.919H227.212C227.337 121.225 228.841 122.603 232.4 122.603Z" fill="white"/>
<path d="M31.0207 162.047H37.0825V160.992H32.1458V152.483H31.0207V162.047ZM41.8614 162.187C43.8164 162.187 45.2369 161.104 45.2369 158.671C45.2369 156.238 43.8164 155.155 41.8614 155.155C39.9064 155.155 38.4859 156.238 38.4859 158.671C38.4859 161.104 39.9064 162.187 41.8614 162.187ZM39.6111 158.671C39.6111 156.829 40.5675 156.069 41.8614 156.069C43.1553 156.069 44.1117 156.829 44.1117 158.671C44.1117 160.514 43.1553 161.273 41.8614 161.273C40.5675 161.273 39.6111 160.514 39.6111 158.671ZM47.0626 155.296V162.047H48.1174V158.615C48.1174 157.279 49.2426 156.28 50.5787 156.28H50.7616V155.155C49.5801 155.155 48.6519 155.675 48.0893 156.716L47.9768 155.296H47.0626ZM52.0313 158.671C52.0313 161.104 53.4659 162.187 55.4209 162.187C56.9539 162.187 58.1072 161.54 58.5432 160.106H57.404C57.0383 160.936 56.307 161.273 55.4209 161.273C53.93 161.273 53.2409 160.274 53.1565 158.924H58.6839V158.01C58.6136 156.154 57.193 155.155 55.4209 155.155C53.4659 155.155 52.0313 156.238 52.0313 158.671ZM53.2127 158.01C53.3956 156.871 54.0848 156.069 55.4209 156.069C56.6164 156.069 57.5446 156.772 57.5446 158.01H53.2127ZM61.5667 162.047V159.206C61.5667 157.504 62.1152 156.069 63.5639 156.069C64.4359 156.069 65.1953 156.477 65.1953 157.926V162.047H66.2502V159.206C66.2502 157.504 66.7987 156.069 68.2474 156.069C69.1194 156.069 69.8789 156.477 69.8789 157.926V162.047H70.9337V157.926C70.9478 155.971 70.0758 155.155 68.613 155.155C67.2628 155.155 66.5174 155.76 66.1095 156.73C65.8142 155.633 65.0547 155.155 63.9295 155.155C62.6778 155.155 61.9464 155.675 61.5245 156.519L61.426 155.296H60.5118V162.047H61.5667ZM77.2575 162.047H78.3123V155.296H77.2575V162.047ZM78.3123 153.749V152.483H77.2575V153.749H78.3123ZM80.6308 164.86H81.6856V161.02C82.192 161.822 83.0077 162.187 84.0766 162.187C85.905 162.187 87.2271 161.104 87.2271 158.671C87.2271 156.238 85.905 155.155 84.0766 155.155C82.9937 155.155 82.1779 155.535 81.6716 156.35L81.545 155.296H80.6308V164.86ZM81.6856 157.813C81.9388 156.59 82.7686 156.069 83.8516 156.069C85.1455 156.069 86.1019 156.829 86.1019 158.671C86.1019 160.514 85.1455 161.273 83.8516 161.273C82.7686 161.273 81.9388 160.753 81.6856 159.515V157.813ZM91.548 162.187C93.292 162.187 94.3609 161.681 94.3609 160.204C94.3609 157.588 89.8884 158.938 89.8884 157.054C89.8884 156.421 90.465 156.069 91.5199 156.069C92.6169 156.069 93.067 156.435 93.1514 157.152H94.2062C94.1078 155.9 93.278 155.155 91.5199 155.155C89.9446 155.155 88.8054 155.732 88.8054 157.096C88.8054 159.951 93.278 158.657 93.278 160.246C93.278 160.893 92.7576 161.273 91.5339 161.273C90.2822 161.273 89.804 160.879 89.7337 160.12H88.6366C88.707 161.414 89.5508 162.187 91.548 162.187ZM98.7534 162.187C100.104 162.187 100.891 161.653 101.341 160.767L101.44 162.047H102.354V155.296H101.299V158.137C101.299 159.838 100.708 161.273 99.105 161.273C98.1486 161.273 97.3188 160.865 97.3188 159.417V155.296H96.2639V159.417C96.2499 161.372 97.1781 162.187 98.7534 162.187ZM105.733 162.047V159.206C105.733 157.504 106.281 156.069 107.73 156.069C108.602 156.069 109.361 156.477 109.361 157.926V162.047H110.416V159.206C110.416 157.504 110.965 156.069 112.414 156.069C113.286 156.069 114.045 156.477 114.045 157.926V162.047H115.1V157.926C115.114 155.971 114.242 155.155 112.779 155.155C111.429 155.155 110.684 155.76 110.276 156.73C109.98 155.633 109.221 155.155 108.096 155.155C106.844 155.155 106.113 155.675 105.691 156.519L105.592 155.296H104.678V162.047H105.733ZM124.082 162.187C125.165 162.187 125.981 161.808 126.487 160.992L126.613 162.047H127.528V152.483H126.473V156.322C125.967 155.521 125.151 155.155 124.082 155.155C122.253 155.155 120.931 156.238 120.931 158.671C120.931 161.104 122.253 162.187 124.082 162.187ZM122.057 158.671C122.057 156.829 123.013 156.069 124.307 156.069C125.39 156.069 126.22 156.59 126.473 157.827V159.529C126.22 160.753 125.39 161.273 124.307 161.273C123.013 161.273 122.057 160.514 122.057 158.671ZM132.735 162.187C134.69 162.187 136.11 161.104 136.11 158.671C136.11 156.238 134.69 155.155 132.735 155.155C130.78 155.155 129.359 156.238 129.359 158.671C129.359 161.104 130.78 162.187 132.735 162.187ZM130.484 158.671C130.484 156.829 131.441 156.069 132.735 156.069C134.029 156.069 134.985 156.829 134.985 158.671C134.985 160.514 134.029 161.273 132.735 161.273C131.441 161.273 130.484 160.514 130.484 158.671ZM137.936 162.047H138.991V152.483H137.936V162.047ZM144.192 162.187C146.147 162.187 147.568 161.104 147.568 158.671C147.568 156.238 146.147 155.155 144.192 155.155C142.237 155.155 140.817 156.238 140.817 158.671C140.817 161.104 142.237 162.187 144.192 162.187ZM141.942 158.671C141.942 156.829 142.898 156.069 144.192 156.069C145.486 156.069 146.443 156.829 146.443 158.671C146.443 160.514 145.486 161.273 144.192 161.273C142.898 161.273 141.942 160.514 141.942 158.671ZM149.394 155.296V162.047H150.448V158.615C150.448 157.279 151.574 156.28 152.91 156.28H153.093V155.155C151.911 155.155 150.983 155.675 150.42 156.716L150.308 155.296H149.394ZM161.349 162.187C163.093 162.187 164.162 161.681 164.162 160.204C164.162 157.588 159.689 158.938 159.689 157.054C159.689 156.421 160.266 156.069 161.321 156.069C162.418 156.069 162.868 156.435 162.952 157.152H164.007C163.909 155.9 163.079 155.155 161.321 155.155C159.746 155.155 158.606 155.732 158.606 157.096C158.606 159.951 163.079 158.657 163.079 160.246C163.079 160.893 162.559 161.273 161.335 161.273C160.083 161.273 159.605 160.879 159.535 160.12H158.438C158.508 161.414 159.352 162.187 161.349 162.187ZM166.065 162.047H167.12V155.296H166.065V162.047ZM167.12 153.749V152.483H166.065V153.749H167.12ZM170.015 156.139V159.993C170.015 161.568 170.634 162.047 171.843 162.047H173.067V161.132H172.111C171.253 161.132 171.07 160.978 171.07 159.867V156.139H172.997V155.296H171.07V153.27H170.015V155.296H168.805V156.139H170.015ZM180.582 162.187C181.904 162.187 182.706 161.681 183.142 160.964C183.254 161.737 183.662 162.047 184.675 162.047H184.984V161.048H184.675C184.323 161.048 184.126 160.837 184.126 160.218V157.462C184.126 155.872 183.282 155.155 181.341 155.155C179.499 155.155 178.613 155.943 178.556 157.265H179.597C179.668 156.463 180.118 156.069 181.355 156.069C182.466 156.069 183.029 156.463 183.099 157.433C182.916 158.924 178.331 157.574 178.331 160.317C178.331 161.836 179.485 162.187 180.582 162.187ZM179.414 160.303C179.414 158.77 181.96 159.473 183.099 158.601V159.177C183.099 160.373 182.368 161.343 180.863 161.343C179.864 161.343 179.414 160.921 179.414 160.303ZM187.522 162.047V159.206C187.522 157.504 188.07 156.069 189.519 156.069C190.391 156.069 191.15 156.477 191.15 157.926V162.047H192.205V159.206C192.205 157.504 192.754 156.069 194.202 156.069C195.074 156.069 195.834 156.477 195.834 157.926V162.047H196.889V157.926C196.903 155.971 196.031 155.155 194.568 155.155C193.218 155.155 192.472 155.76 192.065 156.73C191.769 155.633 191.01 155.155 189.885 155.155C188.633 155.155 187.902 155.675 187.48 156.519L187.381 155.296H186.467V162.047H187.522ZM198.715 158.671C198.715 161.104 200.15 162.187 202.105 162.187C203.638 162.187 204.791 161.54 205.227 160.106H204.088C203.722 160.936 202.991 161.273 202.105 161.273C200.614 161.273 199.925 160.274 199.84 158.924H205.368V158.01C205.297 156.154 203.877 155.155 202.105 155.155C200.15 155.155 198.715 156.238 198.715 158.671ZM199.897 158.01C200.079 156.871 200.769 156.069 202.105 156.069C203.3 156.069 204.229 156.772 204.229 158.01H199.897ZM207.772 156.139V159.993C207.772 161.568 208.391 162.047 209.601 162.047H210.824V161.132H209.868C209.01 161.132 208.827 160.978 208.827 159.867V156.139H210.754V155.296H208.827V153.27H207.772V155.296H206.563V156.139H207.772ZM212.365 163.594H213.209L213.771 160.64H212.365V163.594ZM222.836 162.187C224.425 162.187 225.565 161.456 225.958 159.867H224.847C224.524 160.851 223.792 161.273 222.836 161.273C221.57 161.273 220.586 160.514 220.586 158.671C220.586 156.829 221.57 156.069 222.836 156.069C223.778 156.069 224.51 156.477 224.833 157.462H225.958C225.565 155.872 224.425 155.155 222.836 155.155C220.909 155.155 219.46 156.238 219.46 158.671C219.46 161.104 220.909 162.187 222.836 162.187ZM230.673 162.187C232.628 162.187 234.049 161.104 234.049 158.671C234.049 156.238 232.628 155.155 230.673 155.155C228.718 155.155 227.298 156.238 227.298 158.671C227.298 161.104 228.718 162.187 230.673 162.187ZM228.423 158.671C228.423 156.829 229.379 156.069 230.673 156.069C231.967 156.069 232.924 156.829 232.924 158.671C232.924 160.514 231.967 161.273 230.673 161.273C229.379 161.273 228.423 160.514 228.423 158.671ZM235.874 162.047H236.929V159.206C236.929 157.504 237.534 156.069 239.165 156.069C240.136 156.069 240.98 156.477 240.98 157.926V162.047H242.035V157.926C242.049 155.971 241.106 155.155 239.517 155.155C238.139 155.155 237.337 155.703 236.901 156.59L236.789 155.296H235.874V162.047ZM246.846 162.187C248.59 162.187 249.659 161.681 249.659 160.204C249.659 157.588 245.187 158.938 245.187 157.054C245.187 156.421 245.763 156.069 246.818 156.069C247.915 156.069 248.365 156.435 248.45 157.152H249.505C249.406 155.9 248.576 155.155 246.818 155.155C245.243 155.155 244.104 155.732 244.104 157.096C244.104 159.951 248.576 158.657 248.576 160.246C248.576 160.893 248.056 161.273 246.832 161.273C245.581 161.273 245.102 160.879 245.032 160.12H243.935C244.005 161.414 244.849 162.187 246.846 162.187ZM251.07 158.671C251.07 161.104 252.505 162.187 254.46 162.187C255.993 162.187 257.146 161.54 257.582 160.106H256.443C256.077 160.936 255.346 161.273 254.46 161.273C252.969 161.273 252.28 160.274 252.195 158.924H257.723V158.01C257.652 156.154 256.232 155.155 254.46 155.155C252.505 155.155 251.07 156.238 251.07 158.671ZM252.252 158.01C252.434 156.871 253.124 156.069 254.46 156.069C255.655 156.069 256.583 156.772 256.583 158.01H252.252ZM262.434 162.187C264.023 162.187 265.162 161.456 265.556 159.867H264.445C264.122 160.851 263.39 161.273 262.434 161.273C261.168 161.273 260.184 160.514 260.184 158.671C260.184 156.829 261.168 156.069 262.434 156.069C263.376 156.069 264.108 156.477 264.431 157.462H265.556C265.162 155.872 264.023 155.155 262.434 155.155C260.507 155.155 259.058 156.238 259.058 158.671C259.058 161.104 260.507 162.187 262.434 162.187ZM267.964 156.139V159.993C267.964 161.568 268.583 162.047 269.793 162.047H271.016V161.132H270.06C269.202 161.132 269.019 160.978 269.019 159.867V156.139H270.946V155.296H269.019V153.27H267.964V155.296H266.755V156.139H267.964ZM272.205 158.671C272.205 161.104 273.64 162.187 275.595 162.187C277.128 162.187 278.281 161.54 278.717 160.106H277.578C277.212 160.936 276.481 161.273 275.595 161.273C274.104 161.273 273.415 160.274 273.331 158.924H278.858V158.01C278.788 156.154 277.367 155.155 275.595 155.155C273.64 155.155 272.205 156.238 272.205 158.671ZM273.387 158.01C273.57 156.871 274.259 156.069 275.595 156.069C276.791 156.069 277.719 156.772 277.719 158.01H273.387ZM281.263 156.139V159.993C281.263 161.568 281.881 162.047 283.091 162.047H284.315V161.132H283.358C282.5 161.132 282.317 160.978 282.317 159.867V156.139H284.244V155.296H282.317V153.27H281.263V155.296H280.053V156.139H281.263ZM288.485 162.187C289.836 162.187 290.623 161.653 291.073 160.767L291.172 162.047H292.086V155.296H291.031V158.137C291.031 159.838 290.44 161.273 288.837 161.273C287.881 161.273 287.051 160.865 287.051 159.417V155.296H285.996V159.417C285.982 161.372 286.91 162.187 288.485 162.187ZM294.41 155.296V162.047H295.465V158.615C295.465 157.279 296.59 156.28 297.926 156.28H298.109V155.155C296.928 155.155 295.999 155.675 295.437 156.716L295.324 155.296H294.41ZM32.7084 179.187C34.0305 179.187 34.8322 178.681 35.2682 177.964C35.3807 178.737 35.7886 179.047 36.8012 179.047H37.1106V178.048H36.8012C36.4496 178.048 36.2527 177.837 36.2527 177.218V174.462C36.2527 172.872 35.4088 172.155 33.4679 172.155C31.6255 172.155 30.7394 172.943 30.6831 174.265H31.7239C31.7942 173.463 32.2443 173.069 33.482 173.069C34.5931 173.069 35.1557 173.463 35.226 174.433C35.0432 175.924 30.4581 174.574 30.4581 177.317C30.4581 178.836 31.6114 179.187 32.7084 179.187ZM31.5411 177.303C31.5411 175.77 34.0868 176.473 35.226 175.601V176.177C35.226 177.373 34.4946 178.343 32.9897 178.343C31.9911 178.343 31.5411 177.921 31.5411 177.303ZM41.2518 179.187C42.3348 179.187 43.1505 178.808 43.6568 177.992L43.7834 179.047H44.6976V169.483H43.6428V173.322C43.1364 172.521 42.3207 172.155 41.2518 172.155C39.4234 172.155 38.1013 173.238 38.1013 175.671C38.1013 178.104 39.4234 179.187 41.2518 179.187ZM39.2265 175.671C39.2265 173.829 40.1829 173.069 41.4768 173.069C42.5598 173.069 43.3896 173.59 43.6428 174.827V176.529C43.3896 177.753 42.5598 178.273 41.4768 178.273C40.1829 178.273 39.2265 177.514 39.2265 175.671ZM47.0214 179.047H48.0762V172.296H47.0214V179.047ZM48.0762 170.749V169.483H47.0214V170.749H48.0762ZM50.3947 181.86H51.4495V178.02C51.9558 178.822 52.7716 179.187 53.8405 179.187C55.6689 179.187 56.991 178.104 56.991 175.671C56.991 173.238 55.6689 172.155 53.8405 172.155C52.7575 172.155 51.9418 172.535 51.4354 173.35L51.3089 172.296H50.3947V181.86ZM51.4495 174.813C51.7027 173.59 52.5325 173.069 53.6155 173.069C54.9094 173.069 55.8658 173.829 55.8658 175.671C55.8658 177.514 54.9094 178.273 53.6155 178.273C52.5325 178.273 51.7027 177.753 51.4495 176.515V174.813ZM58.8224 179.047H59.8773V172.296H58.8224V179.047ZM59.8773 170.749V169.483H58.8224V170.749H59.8773ZM64.6852 179.187C66.4292 179.187 67.4981 178.681 67.4981 177.204C67.4981 174.588 63.0256 175.938 63.0256 174.054C63.0256 173.421 63.6022 173.069 64.657 173.069C65.7541 173.069 66.2042 173.435 66.2885 174.152H67.3434C67.2449 172.9 66.4151 172.155 64.657 172.155C63.0818 172.155 61.9426 172.732 61.9426 174.096C61.9426 176.951 66.4151 175.657 66.4151 177.246C66.4151 177.893 65.8947 178.273 64.6711 178.273C63.4194 178.273 62.9412 177.879 62.8708 177.12H61.7738C61.8441 178.414 62.688 179.187 64.6852 179.187ZM72.2843 179.187C73.8736 179.187 75.0129 178.456 75.4067 176.867H74.2956C73.9721 177.851 73.2407 178.273 72.2843 178.273C71.0185 178.273 70.034 177.514 70.034 175.671C70.034 173.829 71.0185 173.069 72.2843 173.069C73.2267 173.069 73.958 173.477 74.2815 174.462H75.4067C75.0129 172.872 73.8736 172.155 72.2843 172.155C70.3575 172.155 68.9088 173.238 68.9088 175.671C68.9088 178.104 70.3575 179.187 72.2843 179.187ZM77.2383 179.047H78.2931V172.296H77.2383V179.047ZM78.2931 170.749V169.483H77.2383V170.749H78.2931ZM80.6116 179.047H81.6664V176.206C81.6664 174.504 82.2712 173.069 83.9027 173.069C84.8731 173.069 85.717 173.477 85.717 174.926V179.047H86.7719V174.926C86.7859 172.971 85.8436 172.155 84.2543 172.155C82.876 172.155 82.0743 172.703 81.6383 173.59L81.5258 172.296H80.6116V179.047ZM88.602 175.601C88.602 177.992 89.9241 179.047 91.7525 179.047C92.8214 179.047 93.6372 178.681 94.1435 177.879V178.723C94.1435 180.453 93.4121 181.086 92.1322 181.086C91.0493 181.086 90.3882 180.678 90.1773 179.989H89.1365C89.3474 181.269 90.3742 182 92.1182 182C93.9466 182 95.1983 180.889 95.1983 178.85V172.296H94.2841L94.1575 173.35C93.6512 172.535 92.8355 172.155 91.7525 172.155C89.9241 172.155 88.602 173.21 88.602 175.601ZM91.9775 173.069C93.0605 173.069 93.8903 173.59 94.1435 174.813V176.374C93.8903 177.612 93.0605 178.132 91.9775 178.132C90.6836 178.132 89.7272 177.387 89.7272 175.601C89.7272 173.815 90.6836 173.069 91.9775 173.069ZM101.035 175.671C101.035 178.104 102.469 179.187 104.424 179.187C105.958 179.187 107.111 178.54 107.547 177.106H106.408C106.042 177.936 105.311 178.273 104.424 178.273C102.934 178.273 102.244 177.274 102.16 175.924H107.687V175.01C107.617 173.154 106.197 172.155 104.424 172.155C102.469 172.155 101.035 173.238 101.035 175.671ZM102.216 175.01C102.399 173.871 103.088 173.069 104.424 173.069C105.62 173.069 106.548 173.772 106.548 175.01H102.216ZM109.515 179.047H110.57V169.483H109.515V179.047ZM112.889 179.047H113.944V172.296H112.889V179.047ZM113.944 170.749V169.483H112.889V170.749H113.944ZM116.839 173.139V176.993C116.839 178.568 117.458 179.047 118.667 179.047H119.891V178.132H118.934C118.076 178.132 117.894 177.978 117.894 176.867V173.139H119.82V172.296H117.894V170.27H116.839V172.296H115.629V173.139H116.839ZM121.431 180.594H122.275L122.838 177.64H121.431V180.594ZM131.509 179.187C133.253 179.187 134.321 178.681 134.321 177.204C134.321 174.588 129.849 175.938 129.849 174.054C129.849 173.421 130.426 173.069 131.48 173.069C132.577 173.069 133.027 173.435 133.112 174.152H134.167C134.068 172.9 133.238 172.155 131.48 172.155C129.905 172.155 128.766 172.732 128.766 174.096C128.766 176.951 133.238 175.657 133.238 177.246C133.238 177.893 132.718 178.273 131.494 178.273C130.243 178.273 129.764 177.879 129.694 177.12H128.597C128.667 178.414 129.511 179.187 131.509 179.187ZM135.732 175.671C135.732 178.104 137.167 179.187 139.122 179.187C140.655 179.187 141.808 178.54 142.244 177.106H141.105C140.739 177.936 140.008 178.273 139.122 178.273C137.631 178.273 136.942 177.274 136.857 175.924H142.385V175.01C142.314 173.154 140.894 172.155 139.122 172.155C137.167 172.155 135.732 173.238 135.732 175.671ZM136.914 175.01C137.096 173.871 137.786 173.069 139.122 173.069C140.317 173.069 141.245 173.772 141.245 175.01H136.914ZM146.871 179.187C147.954 179.187 148.77 178.808 149.276 177.992L149.403 179.047H150.317V169.483H149.262V173.322C148.756 172.521 147.94 172.155 146.871 172.155C145.042 172.155 143.72 173.238 143.72 175.671C143.72 178.104 145.042 179.187 146.871 179.187ZM144.846 175.671C144.846 173.829 145.802 173.069 147.096 173.069C148.179 173.069 149.009 173.59 149.262 174.827V176.529C149.009 177.753 148.179 178.273 147.096 178.273C145.802 178.273 144.846 177.514 144.846 175.671ZM159.304 179.187C160.387 179.187 161.203 178.808 161.709 177.992L161.835 179.047H162.75V169.483H161.695V173.322C161.188 172.521 160.373 172.155 159.304 172.155C157.475 172.155 156.153 173.238 156.153 175.671C156.153 178.104 157.475 179.187 159.304 179.187ZM157.278 175.671C157.278 173.829 158.235 173.069 159.529 173.069C160.612 173.069 161.442 173.59 161.695 174.827V176.529C161.442 177.753 160.612 178.273 159.529 178.273C158.235 178.273 157.278 177.514 157.278 175.671ZM167.957 179.187C169.912 179.187 171.332 178.104 171.332 175.671C171.332 173.238 169.912 172.155 167.957 172.155C166.002 172.155 164.581 173.238 164.581 175.671C164.581 178.104 166.002 179.187 167.957 179.187ZM165.706 175.671C165.706 173.829 166.663 173.069 167.957 173.069C169.251 173.069 170.207 173.829 170.207 175.671C170.207 177.514 169.251 178.273 167.957 178.273C166.663 178.273 165.706 177.514 165.706 175.671ZM176.671 175.671C176.671 178.104 178.105 179.187 180.06 179.187C181.593 179.187 182.746 178.54 183.183 177.106H182.043C181.678 177.936 180.946 178.273 180.06 178.273C178.569 178.273 177.88 177.274 177.796 175.924H183.323V175.01C183.253 173.154 181.832 172.155 180.06 172.155C178.105 172.155 176.671 173.238 176.671 175.671ZM177.852 175.01C178.035 173.871 178.724 173.069 180.06 173.069C181.256 173.069 182.184 173.772 182.184 175.01H177.852ZM185.151 179.047H186.206V172.296H185.151V179.047ZM186.206 170.749V169.483H185.151V170.749H186.206ZM191.014 179.187C192.364 179.187 193.152 178.653 193.602 177.767L193.7 179.047H194.614V172.296H193.56V175.137C193.56 176.838 192.969 178.273 191.365 178.273C190.409 178.273 189.579 177.865 189.579 176.417V172.296H188.524V176.417C188.51 178.372 189.439 179.187 191.014 179.187ZM199.428 179.187C201.172 179.187 202.241 178.681 202.241 177.204C202.241 174.588 197.768 175.938 197.768 174.054C197.768 173.421 198.345 173.069 199.4 173.069C200.497 173.069 200.947 173.435 201.031 174.152H202.086C201.988 172.9 201.158 172.155 199.4 172.155C197.825 172.155 196.685 172.732 196.685 174.096C196.685 176.951 201.158 175.657 201.158 177.246C201.158 177.893 200.637 178.273 199.414 178.273C198.162 178.273 197.684 177.879 197.614 177.12H196.517C196.587 178.414 197.431 179.187 199.428 179.187ZM205.199 179.047V176.206C205.199 174.504 205.747 173.069 207.196 173.069C208.068 173.069 208.827 173.477 208.827 174.926V179.047H209.882V176.206C209.882 174.504 210.431 173.069 211.879 173.069C212.751 173.069 213.511 173.477 213.511 174.926V179.047H214.566V174.926C214.58 172.971 213.708 172.155 212.245 172.155C210.895 172.155 210.149 172.76 209.742 173.73C209.446 172.633 208.687 172.155 207.562 172.155C206.31 172.155 205.578 172.675 205.156 173.519L205.058 172.296H204.144V179.047H205.199ZM219.768 179.187C221.723 179.187 223.143 178.104 223.143 175.671C223.143 173.238 221.723 172.155 219.768 172.155C217.813 172.155 216.392 173.238 216.392 175.671C216.392 178.104 217.813 179.187 219.768 179.187ZM217.517 175.671C217.517 173.829 218.474 173.069 219.768 173.069C221.062 173.069 222.018 173.829 222.018 175.671C222.018 177.514 221.062 178.273 219.768 178.273C218.474 178.273 217.517 177.514 217.517 175.671ZM227.627 179.187C228.71 179.187 229.526 178.808 230.032 177.992L230.159 179.047H231.073V169.483H230.018V173.322C229.512 172.521 228.696 172.155 227.627 172.155C225.799 172.155 224.476 173.238 224.476 175.671C224.476 178.104 225.799 179.187 227.627 179.187ZM225.602 175.671C225.602 173.829 226.558 173.069 227.852 173.069C228.935 173.069 229.765 173.59 230.018 174.827V176.529C229.765 177.753 228.935 178.273 227.852 178.273C226.558 178.273 225.602 177.514 225.602 175.671ZM237.978 173.139V176.993C237.978 178.568 238.597 179.047 239.807 179.047H241.03V178.132H240.074C239.216 178.132 239.033 177.978 239.033 176.867V173.139H240.96V172.296H239.033V170.27H237.978V172.296H236.769V173.139H237.978ZM242.219 175.671C242.219 178.104 243.654 179.187 245.609 179.187C247.142 179.187 248.295 178.54 248.731 177.106H247.592C247.226 177.936 246.495 178.273 245.609 178.273C244.118 178.273 243.429 177.274 243.344 175.924H248.872V175.01C248.802 173.154 247.381 172.155 245.609 172.155C243.654 172.155 242.219 173.238 242.219 175.671ZM243.401 175.01C243.584 173.871 244.273 173.069 245.609 173.069C246.804 173.069 247.733 173.772 247.733 175.01H243.401ZM251.755 179.047V176.206C251.755 174.504 252.303 173.069 253.752 173.069C254.624 173.069 255.383 173.477 255.383 174.926V179.047H256.438V176.206C256.438 174.504 256.987 173.069 258.435 173.069C259.307 173.069 260.067 173.477 260.067 174.926V179.047H261.122V174.926C261.136 172.971 260.264 172.155 258.801 172.155C257.451 172.155 256.705 172.76 256.298 173.73C256.002 172.633 255.243 172.155 254.118 172.155C252.866 172.155 252.134 172.675 251.712 173.519L251.614 172.296H250.7V179.047H251.755ZM263.44 181.86H264.495V178.02C265.002 178.822 265.817 179.187 266.886 179.187C268.715 179.187 270.037 178.104 270.037 175.671C270.037 173.238 268.715 172.155 266.886 172.155C265.803 172.155 264.987 172.535 264.481 173.35L264.355 172.296H263.44V181.86ZM264.495 174.813C264.748 173.59 265.578 173.069 266.661 173.069C267.955 173.069 268.912 173.829 268.912 175.671C268.912 177.514 267.955 178.273 266.661 178.273C265.578 178.273 264.748 177.753 264.495 176.515V174.813ZM274.751 179.187C276.706 179.187 278.127 178.104 278.127 175.671C278.127 173.238 276.706 172.155 274.751 172.155C272.796 172.155 271.376 173.238 271.376 175.671C271.376 178.104 272.796 179.187 274.751 179.187ZM272.501 175.671C272.501 173.829 273.457 173.069 274.751 173.069C276.045 173.069 277.002 173.829 277.002 175.671C277.002 177.514 276.045 178.273 274.751 178.273C273.457 178.273 272.501 177.514 272.501 175.671ZM279.953 172.296V179.047H281.007V175.615C281.007 174.279 282.133 173.28 283.469 173.28H283.652V172.155C282.47 172.155 281.542 172.675 280.979 173.716L280.867 172.296H279.953ZM30.88 196.047H31.9349V189.296H30.88V196.047ZM31.9349 187.749V186.483H30.88V187.749H31.9349ZM34.2533 196.047H35.3082V193.206C35.3082 191.504 35.913 190.069 37.5445 190.069C38.5149 190.069 39.3588 190.477 39.3588 191.926V196.047H40.4136V191.926C40.4277 189.971 39.4854 189.155 37.8961 189.155C36.5177 189.155 35.7161 189.703 35.2801 190.59L35.1675 189.296H34.2533V196.047ZM45.6193 196.187C47.2086 196.187 48.3478 195.456 48.7416 193.867H47.6305C47.307 194.851 46.5757 195.273 45.6193 195.273C44.3535 195.273 43.369 194.514 43.369 192.671C43.369 190.829 44.3535 190.069 45.6193 190.069C46.5616 190.069 47.293 190.477 47.6165 191.462H48.7416C48.3478 189.872 47.2086 189.155 45.6193 189.155C43.6924 189.155 42.2438 190.238 42.2438 192.671C42.2438 195.104 43.6924 196.187 45.6193 196.187ZM50.5732 196.047H51.6281V189.296H50.5732V196.047ZM51.6281 187.749V186.483H50.5732V187.749H51.6281ZM56.6047 196.187C57.6877 196.187 58.5035 195.808 59.0098 194.992L59.1364 196.047H60.0506V186.483H58.9957V190.322C58.4894 189.521 57.6736 189.155 56.6047 189.155C54.7763 189.155 53.4543 190.238 53.4543 192.671C53.4543 195.104 54.7763 196.187 56.6047 196.187ZM54.5794 192.671C54.5794 190.829 55.5358 190.069 56.8298 190.069C57.9127 190.069 58.7426 190.59 58.9957 191.827V193.529C58.7426 194.753 57.9127 195.273 56.8298 195.273C55.5358 195.273 54.5794 194.514 54.5794 192.671ZM62.3743 196.047H63.4291V189.296H62.3743V196.047ZM63.4291 187.749V186.483H62.3743V187.749H63.4291ZM68.4058 196.187C69.4888 196.187 70.3045 195.808 70.8109 194.992L70.9374 196.047H71.8516V186.483H70.7968V190.322C70.2905 189.521 69.4747 189.155 68.4058 189.155C66.5774 189.155 65.2553 190.238 65.2553 192.671C65.2553 195.104 66.5774 196.187 68.4058 196.187ZM66.3805 192.671C66.3805 190.829 67.3369 190.069 68.6308 190.069C69.7138 190.069 70.5436 190.59 70.7968 191.827V193.529C70.5436 194.753 69.7138 195.273 68.6308 195.273C67.3369 195.273 66.3805 194.514 66.3805 192.671ZM76.6648 196.187C78.015 196.187 78.8026 195.653 79.2527 194.767L79.3511 196.047H80.2653V189.296H79.2105V192.137C79.2105 193.838 78.6198 195.273 77.0164 195.273C76.06 195.273 75.2302 194.865 75.2302 193.417V189.296H74.1754V193.417C74.1613 195.372 75.0896 196.187 76.6648 196.187ZM82.5894 196.047H83.6443V193.206C83.6443 191.504 84.249 190.069 85.8805 190.069C86.851 190.069 87.6949 190.477 87.6949 191.926V196.047H88.7497V191.926C88.7638 189.971 87.8214 189.155 86.2321 189.155C84.8538 189.155 84.0521 189.703 83.6161 190.59L83.5036 189.296H82.5894V196.047ZM91.6488 190.139V193.993C91.6488 195.568 92.2676 196.047 93.4772 196.047H94.7008V195.132H93.7444C92.8865 195.132 92.7036 194.978 92.7036 193.867V190.139H94.6305V189.296H92.7036V187.27H91.6488V189.296H90.4392V190.139H91.6488ZM102.877 196.187C104.227 196.187 105.014 195.653 105.464 194.767L105.563 196.047H106.477V189.296H105.422V192.137C105.422 193.838 104.832 195.273 103.228 195.273C102.272 195.273 101.442 194.865 101.442 193.417V189.296H100.387V193.417C100.373 195.372 101.301 196.187 102.877 196.187ZM109.378 190.139V193.993C109.378 195.568 109.997 196.047 111.206 196.047H112.43V195.132H111.473C110.616 195.132 110.433 194.978 110.433 193.867V190.139H112.36V189.296H110.433V187.27H109.378V189.296H108.168V190.139H109.378ZM118.116 196.047H119.171V186.483H118.116V196.047ZM123.318 196.187C124.64 196.187 125.442 195.681 125.878 194.964C125.99 195.737 126.398 196.047 127.411 196.047H127.72V195.048H127.411C127.059 195.048 126.862 194.837 126.862 194.218V191.462C126.862 189.872 126.018 189.155 124.077 189.155C122.235 189.155 121.349 189.943 121.293 191.265H122.333C122.404 190.463 122.854 190.069 124.092 190.069C125.203 190.069 125.765 190.463 125.836 191.433C125.653 192.924 121.068 191.574 121.068 194.317C121.068 195.836 122.221 196.187 123.318 196.187ZM122.151 194.303C122.151 192.77 124.696 193.473 125.836 192.601V193.177C125.836 194.373 125.104 195.343 123.599 195.343C122.601 195.343 122.151 194.921 122.151 194.303ZM129.203 186.483V196.047H130.117L130.244 195.006C130.736 195.808 131.524 196.187 132.579 196.187C134.365 196.187 135.799 195.104 135.799 192.671C135.799 190.238 134.365 189.155 132.579 189.155C131.538 189.155 130.75 189.521 130.258 190.308V186.483H129.203ZM130.258 191.827C130.511 190.59 131.341 190.069 132.424 190.069C133.718 190.069 134.674 190.829 134.674 192.671C134.674 194.514 133.718 195.273 132.424 195.273C131.341 195.273 130.511 194.753 130.258 193.529V191.827ZM140.514 196.187C142.469 196.187 143.89 195.104 143.89 192.671C143.89 190.238 142.469 189.155 140.514 189.155C138.559 189.155 137.139 190.238 137.139 192.671C137.139 195.104 138.559 196.187 140.514 196.187ZM138.264 192.671C138.264 190.829 139.22 190.069 140.514 190.069C141.808 190.069 142.764 190.829 142.764 192.671C142.764 194.514 141.808 195.273 140.514 195.273C139.22 195.273 138.264 194.514 138.264 192.671ZM145.715 189.296V196.047H146.77V192.615C146.77 191.279 147.895 190.28 149.231 190.28H149.414V189.155C148.233 189.155 147.305 189.675 146.742 190.716L146.629 189.296H145.715ZM150.684 192.671C150.684 195.104 152.119 196.187 154.074 196.187C155.607 196.187 156.76 195.54 157.196 194.106H156.057C155.691 194.936 154.96 195.273 154.074 195.273C152.583 195.273 151.894 194.274 151.809 192.924H157.337V192.01C157.266 190.154 155.846 189.155 154.074 189.155C152.119 189.155 150.684 190.238 150.684 192.671ZM151.865 192.01C152.048 190.871 152.737 190.069 154.074 190.069C155.269 190.069 156.197 190.772 156.197 192.01H151.865ZM162.677 192.671C162.677 195.104 164.112 196.187 166.067 196.187C167.6 196.187 168.753 195.54 169.189 194.106H168.05C167.684 194.936 166.953 195.273 166.067 195.273C164.576 195.273 163.887 194.274 163.803 192.924H169.33V192.01C169.26 190.154 167.839 189.155 166.067 189.155C164.112 189.155 162.677 190.238 162.677 192.671ZM163.859 192.01C164.042 190.871 164.731 190.069 166.067 190.069C167.262 190.069 168.191 190.772 168.191 192.01H163.859ZM171.735 190.139V193.993C171.735 195.568 172.353 196.047 173.563 196.047H174.787V195.132H173.83C172.972 195.132 172.789 194.978 172.789 193.867V190.139H174.716V189.296H172.789V187.27H171.735V189.296H170.525V190.139H171.735ZM183.131 196.187C184.214 196.187 185.03 195.808 185.536 194.992L185.663 196.047H186.577V186.483H185.522V190.322C185.016 189.521 184.2 189.155 183.131 189.155C181.303 189.155 179.981 190.238 179.981 192.671C179.981 195.104 181.303 196.187 183.131 196.187ZM181.106 192.671C181.106 190.829 182.062 190.069 183.356 190.069C184.439 190.069 185.269 190.59 185.522 191.827V193.529C185.269 194.753 184.439 195.273 183.356 195.273C182.062 195.273 181.106 194.514 181.106 192.671ZM191.784 196.187C193.739 196.187 195.159 195.104 195.159 192.671C195.159 190.238 193.739 189.155 191.784 189.155C189.829 189.155 188.408 190.238 188.408 192.671C188.408 195.104 189.829 196.187 191.784 196.187ZM189.534 192.671C189.534 190.829 190.49 190.069 191.784 190.069C193.078 190.069 194.034 190.829 194.034 192.671C194.034 194.514 193.078 195.273 191.784 195.273C190.49 195.273 189.534 194.514 189.534 192.671ZM196.985 196.047H198.04V186.483H196.985V196.047ZM203.242 196.187C205.197 196.187 206.617 195.104 206.617 192.671C206.617 190.238 205.197 189.155 203.242 189.155C201.287 189.155 199.866 190.238 199.866 192.671C199.866 195.104 201.287 196.187 203.242 196.187ZM200.991 192.671C200.991 190.829 201.948 190.069 203.242 190.069C204.536 190.069 205.492 190.829 205.492 192.671C205.492 194.514 204.536 195.273 203.242 195.273C201.948 195.273 200.991 194.514 200.991 192.671ZM208.443 189.296V196.047H209.498V192.615C209.498 191.279 210.623 190.28 211.959 190.28H212.142V189.155C210.96 189.155 210.032 189.675 209.47 190.716L209.357 189.296H208.443ZM213.412 192.671C213.412 195.104 214.846 196.187 216.801 196.187C218.334 196.187 219.488 195.54 219.924 194.106H218.784C218.419 194.936 217.687 195.273 216.801 195.273C215.31 195.273 214.621 194.274 214.537 192.924H220.064V192.01C219.994 190.154 218.573 189.155 216.801 189.155C214.846 189.155 213.412 190.238 213.412 192.671ZM214.593 192.01C214.776 190.871 215.465 190.069 216.801 190.069C217.997 190.069 218.925 190.772 218.925 192.01H214.593ZM226.952 196.047V193.206C226.952 191.504 227.501 190.069 228.949 190.069C229.821 190.069 230.581 190.477 230.581 191.926V196.047H231.636V193.206C231.636 191.504 232.184 190.069 233.633 190.069C234.505 190.069 235.264 190.477 235.264 191.926V196.047H236.319V191.926C236.333 189.971 235.461 189.155 233.998 189.155C232.648 189.155 231.903 189.76 231.495 190.73C231.2 189.633 230.44 189.155 229.315 189.155C228.063 189.155 227.332 189.675 226.91 190.519L226.811 189.296H225.897V196.047H226.952ZM240.466 196.187C241.788 196.187 242.59 195.681 243.026 194.964C243.138 195.737 243.546 196.047 244.559 196.047H244.868V195.048H244.559C244.207 195.048 244.01 194.837 244.01 194.218V191.462C244.01 189.872 243.167 189.155 241.226 189.155C239.383 189.155 238.497 189.943 238.441 191.265H239.482C239.552 190.463 240.002 190.069 241.24 190.069C242.351 190.069 242.913 190.463 242.984 191.433C242.801 192.924 238.216 191.574 238.216 194.317C238.216 195.836 239.369 196.187 240.466 196.187ZM239.299 194.303C239.299 192.77 241.845 193.473 242.984 192.601V193.177C242.984 194.373 242.252 195.343 240.747 195.343C239.749 195.343 239.299 194.921 239.299 194.303ZM245.859 192.601C245.859 194.992 247.181 196.047 249.01 196.047C250.078 196.047 250.894 195.681 251.401 194.879V195.723C251.401 197.453 250.669 198.086 249.389 198.086C248.306 198.086 247.645 197.678 247.434 196.989H246.394C246.605 198.269 247.631 199 249.375 199C251.204 199 252.455 197.889 252.455 195.85V189.296H251.541L251.415 190.35C250.908 189.535 250.093 189.155 249.01 189.155C247.181 189.155 245.859 190.21 245.859 192.601ZM249.235 190.069C250.318 190.069 251.147 190.59 251.401 191.813V193.374C251.147 194.612 250.318 195.132 249.235 195.132C247.941 195.132 246.984 194.387 246.984 192.601C246.984 190.815 247.941 190.069 249.235 190.069ZM254.779 196.047H255.834V193.206C255.834 191.504 256.439 190.069 258.07 190.069C259.041 190.069 259.885 190.477 259.885 191.926V196.047H260.939V191.926C260.953 189.971 260.011 189.155 258.422 189.155C257.044 189.155 256.242 189.703 255.806 190.59L255.693 189.296H254.779V196.047ZM265.09 196.187C266.412 196.187 267.214 195.681 267.65 194.964C267.763 195.737 268.17 196.047 269.183 196.047H269.492V195.048H269.183C268.831 195.048 268.635 194.837 268.635 194.218V191.462C268.635 189.872 267.791 189.155 265.85 189.155C264.007 189.155 263.121 189.943 263.065 191.265H264.106C264.176 190.463 264.626 190.069 265.864 190.069C266.975 190.069 267.537 190.463 267.608 191.433C267.425 192.924 262.84 191.574 262.84 194.317C262.84 195.836 263.993 196.187 265.09 196.187ZM263.923 194.303C263.923 192.77 266.469 193.473 267.608 192.601V193.177C267.608 194.373 266.876 195.343 265.372 195.343C264.373 195.343 263.923 194.921 263.923 194.303ZM32.7084 213.187C34.0305 213.187 34.8322 212.681 35.2682 211.964C35.3807 212.737 35.7886 213.047 36.8012 213.047H37.1106V212.048H36.8012C36.4496 212.048 36.2527 211.837 36.2527 211.218V208.462C36.2527 206.872 35.4088 206.155 33.4679 206.155C31.6255 206.155 30.7394 206.943 30.6831 208.265H31.7239C31.7942 207.463 32.2443 207.069 33.482 207.069C34.5931 207.069 35.1557 207.463 35.226 208.433C35.0432 209.924 30.4581 208.574 30.4581 211.317C30.4581 212.836 31.6114 213.187 32.7084 213.187ZM31.5411 211.303C31.5411 209.77 34.0868 210.473 35.226 209.601V210.177C35.226 211.373 34.4946 212.343 32.9897 212.343C31.9911 212.343 31.5411 211.921 31.5411 211.303ZM38.5936 213.047H39.6484V203.483H38.5936V213.047ZM41.9669 213.047H43.0217V206.296H41.9669V213.047ZM43.0217 204.749V203.483H41.9669V204.749H43.0217ZM47.9984 213.187C49.0673 213.187 49.8831 212.822 50.3894 212.02V215.86H51.4442V206.296H50.53L50.4035 207.35C49.8971 206.535 49.0814 206.155 47.9984 206.155C46.17 206.155 44.8479 207.238 44.8479 209.671C44.8479 212.104 46.17 213.187 47.9984 213.187ZM45.9731 209.671C45.9731 207.829 46.9295 207.069 48.2234 207.069C49.3064 207.069 50.1362 207.59 50.3894 208.813V210.515C50.1362 211.753 49.3064 212.273 48.2234 212.273C46.9295 212.273 45.9731 211.514 45.9731 209.671ZM56.2574 213.187C57.6076 213.187 58.3952 212.653 58.8453 211.767L58.9437 213.047H59.8579V206.296H58.8031V209.137C58.8031 210.838 58.2124 212.273 56.609 212.273C55.6526 212.273 54.8228 211.865 54.8228 210.417V206.296H53.768V210.417C53.7539 212.372 54.6822 213.187 56.2574 213.187ZM64.0104 213.187C65.3325 213.187 66.1342 212.681 66.5702 211.964C66.6827 212.737 67.0906 213.047 68.1032 213.047H68.4126V212.048H68.1032C67.7516 212.048 67.5547 211.837 67.5547 211.218V208.462C67.5547 206.872 66.7108 206.155 64.7699 206.155C62.9274 206.155 62.0414 206.943 61.9851 208.265H63.0259C63.0962 207.463 63.5463 207.069 64.784 207.069C65.8951 207.069 66.4576 207.463 66.528 208.433C66.3451 209.924 61.7601 208.574 61.7601 211.317C61.7601 212.836 62.9134 213.187 64.0104 213.187ZM62.843 211.303C62.843 209.77 65.3887 210.473 66.528 209.601V210.177C66.528 211.373 65.7966 212.343 64.2917 212.343C63.2931 212.343 62.843 211.921 62.843 211.303ZM69.7549 213.047H71.2317V211.57H69.7549V213.047ZM81.3213 213.187C83.6419 213.187 85.1047 212.104 85.1047 208.687V203.483H83.9795V208.687C83.9795 211.457 82.8684 212.132 81.3213 212.132C79.7882 212.132 78.6771 211.457 78.6771 208.687V203.483H77.552V208.687C77.552 212.104 79.0147 213.187 81.3213 213.187ZM88.1464 207.139V210.993C88.1464 212.568 88.7652 213.047 89.9748 213.047H91.1984V212.132H90.242C89.384 212.132 89.2012 211.978 89.2012 210.867V207.139H91.1281V206.296H89.2012V204.27H88.1464V206.296H86.9368V207.139H88.1464ZM96.3925 209.671C96.3925 212.104 97.8271 213.187 99.7821 213.187C101.315 213.187 102.468 212.54 102.904 211.106H101.765C101.399 211.936 100.668 212.273 99.7821 212.273C98.2912 212.273 97.6021 211.274 97.5177 209.924H103.045V209.01C102.975 207.154 101.554 206.155 99.7821 206.155C97.8271 206.155 96.3925 207.238 96.3925 209.671ZM97.5739 209.01C97.7568 207.871 98.4459 207.069 99.7821 207.069C100.978 207.069 101.906 207.772 101.906 209.01H97.5739ZM104.873 213.047H105.928V210.206C105.928 208.504 106.533 207.069 108.164 207.069C109.135 207.069 109.978 207.477 109.978 208.926V213.047H111.033V208.926C111.047 206.971 110.105 206.155 108.516 206.155C107.137 206.155 106.336 206.703 105.9 207.59L105.787 206.296H104.873V213.047ZM113.356 213.047H114.411V206.296H113.356V213.047ZM114.411 204.749V203.483H113.356V204.749H114.411ZM117.784 213.047V210.206C117.784 208.504 118.332 207.069 119.781 207.069C120.653 207.069 121.413 207.477 121.413 208.926V213.047H122.467V210.206C122.467 208.504 123.016 207.069 124.465 207.069C125.337 207.069 126.096 207.477 126.096 208.926V213.047H127.151V208.926C127.165 206.971 126.293 206.155 124.83 206.155C123.48 206.155 122.735 206.76 122.327 207.73C122.031 206.633 121.272 206.155 120.147 206.155C118.895 206.155 118.164 206.675 117.742 207.519L117.643 206.296H116.729V213.047H117.784ZM135.303 213.187C136.625 213.187 137.427 212.681 137.863 211.964C137.975 212.737 138.383 213.047 139.396 213.047H139.705V212.048H139.396C139.044 212.048 138.847 211.837 138.847 211.218V208.462C138.847 206.872 138.003 206.155 136.063 206.155C134.22 206.155 133.334 206.943 133.278 208.265H134.319C134.389 207.463 134.839 207.069 136.077 207.069C137.188 207.069 137.75 207.463 137.821 208.433C137.638 209.924 133.053 208.574 133.053 211.317C133.053 212.836 134.206 213.187 135.303 213.187ZM134.136 211.303C134.136 209.77 136.681 210.473 137.821 209.601V210.177C137.821 211.373 137.089 212.343 135.584 212.343C134.586 212.343 134.136 211.921 134.136 211.303ZM143.846 213.187C144.929 213.187 145.745 212.808 146.252 211.992L146.378 213.047H147.292V203.483H146.237V207.322C145.731 206.521 144.915 206.155 143.846 206.155C142.018 206.155 140.696 207.238 140.696 209.671C140.696 212.104 142.018 213.187 143.846 213.187ZM141.821 209.671C141.821 207.829 142.778 207.069 144.071 207.069C145.154 207.069 145.984 207.59 146.237 208.827V210.529C145.984 211.753 145.154 212.273 144.071 212.273C142.778 212.273 141.821 211.514 141.821 209.671ZM154.676 213.047V210.206C154.676 208.504 155.224 207.069 156.673 207.069C157.545 207.069 158.305 207.477 158.305 208.926V213.047H159.359V210.206C159.359 208.504 159.908 207.069 161.357 207.069C162.229 207.069 162.988 207.477 162.988 208.926V213.047H164.043V208.926C164.057 206.971 163.185 206.155 161.722 206.155C160.372 206.155 159.627 206.76 159.219 207.73C158.923 206.633 158.164 206.155 157.039 206.155C155.787 206.155 155.056 206.675 154.634 207.519L154.535 206.296H153.621V213.047H154.676ZM166.362 213.047H167.417V206.296H166.362V213.047ZM167.417 204.749V203.483H166.362V204.749H167.417ZM169.735 213.047H170.79V210.206C170.79 208.504 171.395 207.069 173.026 207.069C173.997 207.069 174.84 207.477 174.84 208.926V213.047H175.895V208.926C175.909 206.971 174.967 206.155 173.378 206.155C171.999 206.155 171.198 206.703 170.762 207.59L170.649 206.296H169.735V213.047ZM178.218 213.047H179.273V206.296H178.218V213.047ZM179.273 204.749V203.483H178.218V204.749H179.273ZM182.646 213.047V210.206C182.646 208.504 183.194 207.069 184.643 207.069C185.515 207.069 186.275 207.477 186.275 208.926V213.047H187.329V210.206C187.329 208.504 187.878 207.069 189.327 207.069C190.199 207.069 190.958 207.477 190.958 208.926V213.047H192.013V208.926C192.027 206.971 191.155 206.155 189.692 206.155C188.342 206.155 187.597 206.76 187.189 207.73C186.893 206.633 186.134 206.155 185.009 206.155C183.757 206.155 183.026 206.675 182.604 207.519L182.505 206.296H181.591V213.047H182.646ZM197.493 206.296L200.264 213.047H201.515L204.286 206.296H203.147L200.896 211.992L198.632 206.296H197.493ZM204.995 209.671C204.995 212.104 206.429 213.187 208.384 213.187C209.917 213.187 211.071 212.54 211.507 211.106H210.368C210.002 211.936 209.27 212.273 208.384 212.273C206.894 212.273 206.204 211.274 206.12 209.924H211.647V209.01C211.577 207.154 210.157 206.155 208.384 206.155C206.429 206.155 204.995 207.238 204.995 209.671ZM206.176 209.01C206.359 207.871 207.048 207.069 208.384 207.069C209.58 207.069 210.508 207.772 210.508 209.01H206.176ZM213.475 213.047H214.53V210.206C214.53 208.504 215.135 207.069 216.766 207.069C217.737 207.069 218.581 207.477 218.581 208.926V213.047H219.636V208.926C219.65 206.971 218.707 206.155 217.118 206.155C215.74 206.155 214.938 206.703 214.502 207.59L214.39 206.296H213.475V213.047ZM221.958 213.047H223.013V206.296H221.958V213.047ZM223.013 204.749V203.483H221.958V204.749H223.013ZM227.16 213.187C228.482 213.187 229.284 212.681 229.72 211.964C229.832 212.737 230.24 213.047 231.253 213.047H231.562V212.048H231.253C230.901 212.048 230.704 211.837 230.704 211.218V208.462C230.704 206.872 229.86 206.155 227.919 206.155C226.077 206.155 225.191 206.943 225.134 208.265H226.175C226.246 207.463 226.696 207.069 227.933 207.069C229.044 207.069 229.607 207.463 229.677 208.433C229.494 209.924 224.909 208.574 224.909 211.317C224.909 212.836 226.063 213.187 227.16 213.187ZM225.992 211.303C225.992 209.77 228.538 210.473 229.677 209.601V210.177C229.677 211.373 228.946 212.343 227.441 212.343C226.442 212.343 225.992 211.921 225.992 211.303ZM234.1 213.047V210.206C234.1 208.504 234.648 207.069 236.097 207.069C236.969 207.069 237.728 207.477 237.728 208.926V213.047H238.783V210.206C238.783 208.504 239.332 207.069 240.78 207.069C241.652 207.069 242.412 207.477 242.412 208.926V213.047H243.467V208.926C243.481 206.971 242.609 206.155 241.146 206.155C239.796 206.155 239.051 206.76 238.643 207.73C238.347 206.633 237.588 206.155 236.463 206.155C235.211 206.155 234.48 206.675 234.058 207.519L233.959 206.296H233.045V213.047H234.1ZM245.645 214.594H246.489L247.051 211.64H245.645V214.594Z" fill="white"/>
<path d="M31.3 49.4828C31.5554 54.5901 34.0239 58.378 41.4295 58.9313V63.3151H45.2599V58.9739C52.1122 58.5908 55.3894 55.9095 55.3894 50.5468C55.3894 44.2904 50.0267 43.0136 45.2599 42.0347V34.3312C47.9838 34.8845 48.9201 36.7146 49.1329 38.5873H54.8786C54.7084 33.6077 52.0696 29.8198 45.2599 29.2665V26.2447H41.4295V29.3091C35.173 29.8198 31.7256 32.8416 31.7256 37.8638C31.7256 44.2479 36.7903 45.9077 41.4295 46.8441V53.8666C38.5353 53.2707 37.3436 51.5683 37.2159 49.4828H31.3ZM45.2599 47.5676C47.6008 48.1209 49.4309 48.8019 49.4309 50.5894C49.4309 52.6749 48.154 53.7389 45.2599 54.0368V47.5676ZM37.6841 37.651C37.6841 35.6506 39.0035 34.544 41.4295 34.2461V41.2261C39.3014 40.5876 37.6841 39.6939 37.6841 37.651Z" fill="white"/>
</svg>
