<svg width="385" height="278" viewBox="0 0 385 278" fill="none" xmlns="http://www.w3.org/2000/svg">
<rect x="1.01186" y="1.8998" width="359.116" height="274.729" rx="8.43876" stroke="#E94C3D" stroke-width="1.87528" stroke-dasharray="3.75 3.75"/>
<path d="M30.2089 122.353H36.424C41.1103 122.353 44.5436 119.897 44.5436 113.832C44.5436 107.767 41.1103 105.311 36.424 105.311H30.2089V122.353ZM32.2138 107.191H36.424C39.6818 107.191 42.4134 108.92 42.4134 113.832C42.4134 118.744 39.6818 120.473 36.424 120.473H32.2138V107.191ZM47.0592 116.338C47.0592 120.673 49.6154 122.603 53.0988 122.603C55.8304 122.603 57.8854 121.45 58.6623 118.894H56.6324C55.9808 120.373 54.6776 120.974 53.0988 120.974C50.4424 120.974 49.2144 119.195 49.0641 116.789H58.9129V115.16C58.7876 111.852 56.2565 110.073 53.0988 110.073C49.6154 110.073 47.0592 112.003 47.0592 116.338ZM49.1643 115.16C49.4901 113.13 50.7181 111.702 53.0988 111.702C55.229 111.702 56.883 112.955 56.883 115.16H49.1643ZM66.6057 122.603C69.7132 122.603 71.6178 121.701 71.6178 119.07C71.6178 114.408 63.6485 116.814 63.6485 113.456C63.6485 112.328 64.676 111.702 66.5556 111.702C68.5103 111.702 69.3122 112.353 69.4626 113.631H71.3421C71.1667 111.401 69.6881 110.073 66.5556 110.073C63.7488 110.073 61.7189 111.1 61.7189 113.531C61.7189 118.619 69.6881 116.313 69.6881 119.145C69.6881 120.298 68.7609 120.974 66.5806 120.974C64.3502 120.974 63.4982 120.273 63.3729 118.919H61.4182C61.5435 121.225 63.0471 122.603 66.6057 122.603ZM75.0086 122.353H76.8882V110.323H75.0086V122.353ZM76.8882 107.567V105.311H75.0086V107.567H76.8882ZM80.1421 116.213C80.1421 120.473 82.4978 122.353 85.7557 122.353C87.6603 122.353 89.1138 121.701 90.016 120.273V121.776C90.016 124.859 88.7128 125.986 86.4323 125.986C84.5026 125.986 83.3248 125.26 82.9489 124.032H81.0944C81.4703 126.312 83.2997 127.615 86.4072 127.615C89.6651 127.615 91.8955 125.635 91.8955 122.002V110.323H90.2666L90.041 112.203C89.1388 110.749 87.6853 110.073 85.7557 110.073C82.4978 110.073 80.1421 111.952 80.1421 116.213ZM86.1566 111.702C88.0863 111.702 89.5649 112.629 90.016 114.809V117.591C89.5649 119.796 88.0863 120.724 86.1566 120.724C83.8511 120.724 82.147 119.395 82.147 116.213C82.147 113.03 83.8511 111.702 86.1566 111.702ZM96.036 122.353H97.9155V117.29C97.9155 114.258 98.9931 111.702 101.9 111.702C103.629 111.702 105.133 112.429 105.133 115.01V122.353H107.013V115.01C107.038 111.526 105.359 110.073 102.527 110.073C100.071 110.073 98.6423 111.05 97.8654 112.629L97.6649 110.323H96.036V122.353Z" fill="white"/>
<path d="M29.3293 162.047H35.3911V160.992H30.4544V152.483H29.3293V162.047ZM40.17 162.187C42.125 162.187 43.5455 161.104 43.5455 158.671C43.5455 156.238 42.125 155.155 40.17 155.155C38.215 155.155 36.7945 156.238 36.7945 158.671C36.7945 161.104 38.215 162.187 40.17 162.187ZM37.9197 158.671C37.9197 156.829 38.8761 156.069 40.17 156.069C41.4639 156.069 42.4203 156.829 42.4203 158.671C42.4203 160.514 41.4639 161.273 40.17 161.273C38.8761 161.273 37.9197 160.514 37.9197 158.671ZM45.3712 155.296V162.047H46.426V158.615C46.426 157.279 47.5512 156.28 48.8873 156.28H49.0701V155.155C47.8887 155.155 46.9605 155.675 46.3979 156.716L46.2854 155.296H45.3712ZM50.3399 158.671C50.3399 161.104 51.7745 162.187 53.7295 162.187C55.2625 162.187 56.4158 161.54 56.8518 160.106H55.7126C55.3469 160.936 54.6156 161.273 53.7295 161.273C52.2386 161.273 51.5495 160.274 51.4651 158.924H56.9925V158.01C56.9221 156.154 55.5016 155.155 53.7295 155.155C51.7745 155.155 50.3399 156.238 50.3399 158.671ZM51.5213 158.01C51.7042 156.871 52.3933 156.069 53.7295 156.069C54.925 156.069 55.8532 156.772 55.8532 158.01H51.5213ZM59.8753 162.047V159.206C59.8753 157.504 60.4238 156.069 61.8724 156.069C62.7445 156.069 63.5039 156.477 63.5039 157.926V162.047H64.5588V159.206C64.5588 157.504 65.1073 156.069 66.556 156.069C67.428 156.069 68.1875 156.477 68.1875 157.926V162.047H69.2423V157.926C69.2564 155.971 68.3844 155.155 66.9216 155.155C65.5714 155.155 64.826 155.76 64.4181 156.73C64.1228 155.633 63.3633 155.155 62.2381 155.155C60.9864 155.155 60.255 155.675 59.8331 156.519L59.7346 155.296H58.8204V162.047H59.8753ZM75.5661 162.047H76.6209V155.296H75.5661V162.047ZM76.6209 153.749V152.483H75.5661V153.749H76.6209ZM78.9394 164.86H79.9942V161.02C80.5006 161.822 81.3163 162.187 82.3852 162.187C84.2136 162.187 85.5357 161.104 85.5357 158.671C85.5357 156.238 84.2136 155.155 82.3852 155.155C81.3023 155.155 80.4865 155.535 79.9802 156.35L79.8536 155.296H78.9394V164.86ZM79.9942 157.813C80.2474 156.59 81.0772 156.069 82.1602 156.069C83.4541 156.069 84.4105 156.829 84.4105 158.671C84.4105 160.514 83.4541 161.273 82.1602 161.273C81.0772 161.273 80.2474 160.753 79.9942 159.515V157.813ZM89.8566 162.187C91.6006 162.187 92.6695 161.681 92.6695 160.204C92.6695 157.588 88.197 158.938 88.197 157.054C88.197 156.421 88.7736 156.069 89.8285 156.069C90.9255 156.069 91.3756 156.435 91.46 157.152H92.5148C92.4164 155.9 91.5866 155.155 89.8285 155.155C88.2532 155.155 87.114 155.732 87.114 157.096C87.114 159.951 91.5866 158.657 91.5866 160.246C91.5866 160.893 91.0662 161.273 89.8425 161.273C88.5908 161.273 88.1126 160.879 88.0423 160.12H86.9452C87.0156 161.414 87.8594 162.187 89.8566 162.187ZM97.062 162.187C98.4122 162.187 99.1998 161.653 99.6499 160.767L99.7483 162.047H100.663V155.296H99.6077V158.137C99.6077 159.838 99.0169 161.273 97.4136 161.273C96.4572 161.273 95.6274 160.865 95.6274 159.417V155.296H94.5725V159.417C94.5585 161.372 95.4867 162.187 97.062 162.187ZM104.041 162.047V159.206C104.041 157.504 104.59 156.069 106.039 156.069C106.911 156.069 107.67 156.477 107.67 157.926V162.047H108.725V159.206C108.725 157.504 109.273 156.069 110.722 156.069C111.594 156.069 112.354 156.477 112.354 157.926V162.047H113.408V157.926C113.423 155.971 112.55 155.155 111.088 155.155C109.738 155.155 108.992 155.76 108.584 156.73C108.289 155.633 107.529 155.155 106.404 155.155C105.153 155.155 104.421 155.675 103.999 156.519L103.901 155.296H102.987V162.047H104.041ZM122.39 162.187C123.473 162.187 124.289 161.808 124.795 160.992L124.922 162.047H125.836V152.483H124.781V156.322C124.275 155.521 123.459 155.155 122.39 155.155C120.562 155.155 119.24 156.238 119.24 158.671C119.24 161.104 120.562 162.187 122.39 162.187ZM120.365 158.671C120.365 156.829 121.322 156.069 122.615 156.069C123.698 156.069 124.528 156.59 124.781 157.827V159.529C124.528 160.753 123.698 161.273 122.615 161.273C121.322 161.273 120.365 160.514 120.365 158.671ZM131.043 162.187C132.998 162.187 134.419 161.104 134.419 158.671C134.419 156.238 132.998 155.155 131.043 155.155C129.088 155.155 127.668 156.238 127.668 158.671C127.668 161.104 129.088 162.187 131.043 162.187ZM128.793 158.671C128.793 156.829 129.749 156.069 131.043 156.069C132.337 156.069 133.294 156.829 133.294 158.671C133.294 160.514 132.337 161.273 131.043 161.273C129.749 161.273 128.793 160.514 128.793 158.671ZM136.244 162.047H137.299V152.483H136.244V162.047ZM142.501 162.187C144.456 162.187 145.876 161.104 145.876 158.671C145.876 156.238 144.456 155.155 142.501 155.155C140.546 155.155 139.125 156.238 139.125 158.671C139.125 161.104 140.546 162.187 142.501 162.187ZM140.251 158.671C140.251 156.829 141.207 156.069 142.501 156.069C143.795 156.069 144.751 156.829 144.751 158.671C144.751 160.514 143.795 161.273 142.501 161.273C141.207 161.273 140.251 160.514 140.251 158.671ZM147.702 155.296V162.047H148.757V158.615C148.757 157.279 149.882 156.28 151.218 156.28H151.401V155.155C150.22 155.155 149.291 155.675 148.729 156.716L148.616 155.296H147.702ZM159.658 162.187C161.402 162.187 162.471 161.681 162.471 160.204C162.471 157.588 157.998 158.938 157.998 157.054C157.998 156.421 158.575 156.069 159.63 156.069C160.727 156.069 161.177 156.435 161.261 157.152H162.316C162.217 155.9 161.388 155.155 159.63 155.155C158.054 155.155 156.915 155.732 156.915 157.096C156.915 159.951 161.388 158.657 161.388 160.246C161.388 160.893 160.867 161.273 159.644 161.273C158.392 161.273 157.914 160.879 157.843 160.12H156.746C156.817 161.414 157.661 162.187 159.658 162.187ZM164.374 162.047H165.428V155.296H164.374V162.047ZM165.428 153.749V152.483H164.374V153.749H165.428ZM168.324 156.139V159.993C168.324 161.568 168.942 162.047 170.152 162.047H171.376V161.132H170.419C169.561 161.132 169.378 160.978 169.378 159.867V156.139H171.305V155.296H169.378V153.27H168.324V155.296H167.114V156.139H168.324ZM178.89 162.187C180.212 162.187 181.014 161.681 181.45 160.964C181.563 161.737 181.971 162.047 182.983 162.047H183.293V161.048H182.983C182.632 161.048 182.435 160.837 182.435 160.218V157.462C182.435 155.872 181.591 155.155 179.65 155.155C177.807 155.155 176.921 155.943 176.865 157.265H177.906C177.976 156.463 178.426 156.069 179.664 156.069C180.775 156.069 181.338 156.463 181.408 157.433C181.225 158.924 176.64 157.574 176.64 160.317C176.64 161.836 177.793 162.187 178.89 162.187ZM177.723 160.303C177.723 158.77 180.269 159.473 181.408 158.601V159.177C181.408 160.373 180.677 161.343 179.172 161.343C178.173 161.343 177.723 160.921 177.723 160.303ZM185.83 162.047V159.206C185.83 157.504 186.379 156.069 187.828 156.069C188.7 156.069 189.459 156.477 189.459 157.926V162.047H190.514V159.206C190.514 157.504 191.062 156.069 192.511 156.069C193.383 156.069 194.143 156.477 194.143 157.926V162.047H195.197V157.926C195.211 155.971 194.339 155.155 192.877 155.155C191.527 155.155 190.781 155.76 190.373 156.73C190.078 155.633 189.318 155.155 188.193 155.155C186.941 155.155 186.21 155.675 185.788 156.519L185.69 155.296H184.776V162.047H185.83ZM197.024 158.671C197.024 161.104 198.458 162.187 200.413 162.187C201.946 162.187 203.1 161.54 203.536 160.106H202.396C202.031 160.936 201.299 161.273 200.413 161.273C198.923 161.273 198.233 160.274 198.149 158.924H203.676V158.01C203.606 156.154 202.186 155.155 200.413 155.155C198.458 155.155 197.024 156.238 197.024 158.671ZM198.205 158.01C198.388 156.871 199.077 156.069 200.413 156.069C201.609 156.069 202.537 156.772 202.537 158.01H198.205ZM206.081 156.139V159.993C206.081 161.568 206.7 162.047 207.909 162.047H209.133V161.132H208.177C207.319 161.132 207.136 160.978 207.136 159.867V156.139H209.063V155.296H207.136V153.27H206.081V155.296H204.871V156.139H206.081ZM210.674 163.594H211.517L212.08 160.64H210.674V163.594ZM221.145 162.187C222.734 162.187 223.873 161.456 224.267 159.867H223.156C222.832 160.851 222.101 161.273 221.145 161.273C219.879 161.273 218.894 160.514 218.894 158.671C218.894 156.829 219.879 156.069 221.145 156.069C222.087 156.069 222.818 156.477 223.142 157.462H224.267C223.873 155.872 222.734 155.155 221.145 155.155C219.218 155.155 217.769 156.238 217.769 158.671C217.769 161.104 219.218 162.187 221.145 162.187ZM228.982 162.187C230.937 162.187 232.357 161.104 232.357 158.671C232.357 156.238 230.937 155.155 228.982 155.155C227.027 155.155 225.606 156.238 225.606 158.671C225.606 161.104 227.027 162.187 228.982 162.187ZM226.731 158.671C226.731 156.829 227.688 156.069 228.982 156.069C230.276 156.069 231.232 156.829 231.232 158.671C231.232 160.514 230.276 161.273 228.982 161.273C227.688 161.273 226.731 160.514 226.731 158.671ZM234.183 162.047H235.238V159.206C235.238 157.504 235.843 156.069 237.474 156.069C238.444 156.069 239.288 156.477 239.288 157.926V162.047H240.343V157.926C240.357 155.971 239.415 155.155 237.826 155.155C236.447 155.155 235.646 155.703 235.21 156.59L235.097 155.296H234.183V162.047ZM245.155 162.187C246.899 162.187 247.968 161.681 247.968 160.204C247.968 157.588 243.495 158.938 243.495 157.054C243.495 156.421 244.072 156.069 245.127 156.069C246.224 156.069 246.674 156.435 246.758 157.152H247.813C247.715 155.9 246.885 155.155 245.127 155.155C243.552 155.155 242.412 155.732 242.412 157.096C242.412 159.951 246.885 158.657 246.885 160.246C246.885 160.893 246.365 161.273 245.141 161.273C243.889 161.273 243.411 160.879 243.341 160.12H242.244C242.314 161.414 243.158 162.187 245.155 162.187ZM249.379 158.671C249.379 161.104 250.813 162.187 252.768 162.187C254.301 162.187 255.455 161.54 255.891 160.106H254.751C254.386 160.936 253.654 161.273 252.768 161.273C251.277 161.273 250.588 160.274 250.504 158.924H256.031V158.01C255.961 156.154 254.54 155.155 252.768 155.155C250.813 155.155 249.379 156.238 249.379 158.671ZM250.56 158.01C250.743 156.871 251.432 156.069 252.768 156.069C253.964 156.069 254.892 156.772 254.892 158.01H250.56ZM260.742 162.187C262.332 162.187 263.471 161.456 263.865 159.867H262.754C262.43 160.851 261.699 161.273 260.742 161.273C259.477 161.273 258.492 160.514 258.492 158.671C258.492 156.829 259.477 156.069 260.742 156.069C261.685 156.069 262.416 156.477 262.74 157.462H263.865C263.471 155.872 262.332 155.155 260.742 155.155C258.816 155.155 257.367 156.238 257.367 158.671C257.367 161.104 258.816 162.187 260.742 162.187ZM266.273 156.139V159.993C266.273 161.568 266.892 162.047 268.101 162.047H269.325V161.132H268.369C267.511 161.132 267.328 160.978 267.328 159.867V156.139H269.255V155.296H267.328V153.27H266.273V155.296H265.063V156.139H266.273ZM270.514 158.671C270.514 161.104 271.949 162.187 273.904 162.187C275.437 162.187 276.59 161.54 277.026 160.106H275.887C275.521 160.936 274.79 161.273 273.904 161.273C272.413 161.273 271.724 160.274 271.639 158.924H277.167V158.01C277.096 156.154 275.676 155.155 273.904 155.155C271.949 155.155 270.514 156.238 270.514 158.671ZM271.696 158.01C271.878 156.871 272.568 156.069 273.904 156.069C275.099 156.069 276.027 156.772 276.027 158.01H271.696ZM279.571 156.139V159.993C279.571 161.568 280.19 162.047 281.4 162.047H282.623V161.132H281.667C280.809 161.132 280.626 160.978 280.626 159.867V156.139H282.553V155.296H280.626V153.27H279.571V155.296H278.362V156.139H279.571ZM286.794 162.187C288.144 162.187 288.932 161.653 289.382 160.767L289.48 162.047H290.395V155.296H289.34V158.137C289.34 159.838 288.749 161.273 287.146 161.273C286.189 161.273 285.359 160.865 285.359 159.417V155.296H284.305V159.417C284.29 161.372 285.219 162.187 286.794 162.187ZM292.719 155.296V162.047H293.773V158.615C293.773 157.279 294.899 156.28 296.235 156.28H296.418V155.155C295.236 155.155 294.308 155.675 293.745 156.716L293.633 155.296H292.719ZM31.017 179.187C32.3391 179.187 33.1408 178.681 33.5768 177.964C33.6893 178.737 34.0972 179.047 35.1098 179.047H35.4192V178.048H35.1098C34.7582 178.048 34.5613 177.837 34.5613 177.218V174.462C34.5613 172.872 33.7174 172.155 31.7765 172.155C29.934 172.155 29.048 172.943 28.9917 174.265H30.0325C30.1028 173.463 30.5529 173.069 31.7906 173.069C32.9017 173.069 33.4643 173.463 33.5346 174.433C33.3517 175.924 28.7667 174.574 28.7667 177.317C28.7667 178.836 29.92 179.187 31.017 179.187ZM29.8497 177.303C29.8497 175.77 32.3954 176.473 33.5346 175.601V176.177C33.5346 177.373 32.8032 178.343 31.2983 178.343C30.2997 178.343 29.8497 177.921 29.8497 177.303ZM39.5604 179.187C40.6434 179.187 41.4591 178.808 41.9654 177.992L42.092 179.047H43.0062V169.483H41.9514V173.322C41.445 172.521 40.6293 172.155 39.5604 172.155C37.732 172.155 36.4099 173.238 36.4099 175.671C36.4099 178.104 37.732 179.187 39.5604 179.187ZM37.5351 175.671C37.5351 173.829 38.4915 173.069 39.7854 173.069C40.8684 173.069 41.6982 173.59 41.9514 174.827V176.529C41.6982 177.753 40.8684 178.273 39.7854 178.273C38.4915 178.273 37.5351 177.514 37.5351 175.671ZM45.3299 179.047H46.3848V172.296H45.3299V179.047ZM46.3848 170.749V169.483H45.3299V170.749H46.3848ZM48.7033 181.86H49.7581V178.02C50.2644 178.822 51.0802 179.187 52.1491 179.187C53.9775 179.187 55.2996 178.104 55.2996 175.671C55.2996 173.238 53.9775 172.155 52.1491 172.155C51.0661 172.155 50.2504 172.535 49.744 173.35L49.6175 172.296H48.7033V181.86ZM49.7581 174.813C50.0113 173.59 50.8411 173.069 51.924 173.069C53.218 173.069 54.1744 173.829 54.1744 175.671C54.1744 177.514 53.218 178.273 51.924 178.273C50.8411 178.273 50.0113 177.753 49.7581 176.515V174.813ZM57.131 179.047H58.1859V172.296H57.131V179.047ZM58.1859 170.749V169.483H57.131V170.749H58.1859ZM62.9938 179.187C64.7378 179.187 65.8067 178.681 65.8067 177.204C65.8067 174.588 61.3341 175.938 61.3341 174.054C61.3341 173.421 61.9108 173.069 62.9656 173.069C64.0627 173.069 64.5127 173.435 64.5971 174.152H65.652C65.5535 172.9 64.7237 172.155 62.9656 172.155C61.3904 172.155 60.2512 172.732 60.2512 174.096C60.2512 176.951 64.7237 175.657 64.7237 177.246C64.7237 177.893 64.2033 178.273 62.9797 178.273C61.728 178.273 61.2498 177.879 61.1794 177.12H60.0824C60.1527 178.414 60.9966 179.187 62.9938 179.187ZM70.5929 179.187C72.1822 179.187 73.3215 178.456 73.7153 176.867H72.6042C72.2807 177.851 71.5493 178.273 70.5929 178.273C69.3271 178.273 68.3426 177.514 68.3426 175.671C68.3426 173.829 69.3271 173.069 70.5929 173.069C71.5353 173.069 72.2666 173.477 72.5901 174.462H73.7153C73.3215 172.872 72.1822 172.155 70.5929 172.155C68.6661 172.155 67.2174 173.238 67.2174 175.671C67.2174 178.104 68.6661 179.187 70.5929 179.187ZM75.5469 179.047H76.6017V172.296H75.5469V179.047ZM76.6017 170.749V169.483H75.5469V170.749H76.6017ZM78.9202 179.047H79.975V176.206C79.975 174.504 80.5798 173.069 82.2113 173.069C83.1817 173.069 84.0256 173.477 84.0256 174.926V179.047H85.0805V174.926C85.0945 172.971 84.1522 172.155 82.5629 172.155C81.1846 172.155 80.3829 172.703 79.9469 173.59L79.8344 172.296H78.9202V179.047ZM86.9106 175.601C86.9106 177.992 88.2327 179.047 90.0611 179.047C91.13 179.047 91.9457 178.681 92.4521 177.879V178.723C92.4521 180.453 91.7207 181.086 90.4408 181.086C89.3579 181.086 88.6968 180.678 88.4859 179.989H87.4451C87.656 181.269 88.6828 182 90.4268 182C92.2552 182 93.5069 180.889 93.5069 178.85V172.296H92.5927L92.4661 173.35C91.9598 172.535 91.1441 172.155 90.0611 172.155C88.2327 172.155 86.9106 173.21 86.9106 175.601ZM90.2861 173.069C91.3691 173.069 92.1989 173.59 92.4521 174.813V176.374C92.1989 177.612 91.3691 178.132 90.2861 178.132C88.9922 178.132 88.0358 177.387 88.0358 175.601C88.0358 173.815 88.9922 173.069 90.2861 173.069ZM99.3435 175.671C99.3435 178.104 100.778 179.187 102.733 179.187C104.266 179.187 105.419 178.54 105.855 177.106H104.716C104.351 177.936 103.619 178.273 102.733 178.273C101.242 178.273 100.553 177.274 100.469 175.924H105.996V175.01C105.926 173.154 104.505 172.155 102.733 172.155C100.778 172.155 99.3435 173.238 99.3435 175.671ZM100.525 175.01C100.708 173.871 101.397 173.069 102.733 173.069C103.929 173.069 104.857 173.772 104.857 175.01H100.525ZM107.824 179.047H108.879V169.483H107.824V179.047ZM111.197 179.047H112.252V172.296H111.197V179.047ZM112.252 170.749V169.483H111.197V170.749H112.252ZM115.147 173.139V176.993C115.147 178.568 115.766 179.047 116.976 179.047H118.199V178.132H117.243C116.385 178.132 116.202 177.978 116.202 176.867V173.139H118.129V172.296H116.202V170.27H115.147V172.296H113.938V173.139H115.147ZM119.74 180.594H120.584L121.146 177.64H119.74V180.594ZM129.817 179.187C131.561 179.187 132.63 178.681 132.63 177.204C132.63 174.588 128.157 175.938 128.157 174.054C128.157 173.421 128.734 173.069 129.789 173.069C130.886 173.069 131.336 173.435 131.42 174.152H132.475C132.377 172.9 131.547 172.155 129.789 172.155C128.214 172.155 127.074 172.732 127.074 174.096C127.074 176.951 131.547 175.657 131.547 177.246C131.547 177.893 131.027 178.273 129.803 178.273C128.551 178.273 128.073 177.879 128.003 177.12H126.906C126.976 178.414 127.82 179.187 129.817 179.187ZM134.041 175.671C134.041 178.104 135.475 179.187 137.43 179.187C138.963 179.187 140.117 178.54 140.553 177.106H139.413C139.048 177.936 138.316 178.273 137.43 178.273C135.939 178.273 135.25 177.274 135.166 175.924H140.693V175.01C140.623 173.154 139.202 172.155 137.43 172.155C135.475 172.155 134.041 173.238 134.041 175.671ZM135.222 175.01C135.405 173.871 136.094 173.069 137.43 173.069C138.626 173.069 139.554 173.772 139.554 175.01H135.222ZM145.179 179.187C146.262 179.187 147.078 178.808 147.585 177.992L147.711 179.047H148.625V169.483H147.57V173.322C147.064 172.521 146.248 172.155 145.179 172.155C143.351 172.155 142.029 173.238 142.029 175.671C142.029 178.104 143.351 179.187 145.179 179.187ZM143.154 175.671C143.154 173.829 144.111 173.069 145.405 173.069C146.487 173.069 147.317 173.59 147.57 174.827V176.529C147.317 177.753 146.487 178.273 145.405 178.273C144.111 178.273 143.154 177.514 143.154 175.671ZM157.612 179.187C158.695 179.187 159.511 178.808 160.017 177.992L160.144 179.047H161.058V169.483H160.003V173.322C159.497 172.521 158.681 172.155 157.612 172.155C155.784 172.155 154.462 173.238 154.462 175.671C154.462 178.104 155.784 179.187 157.612 179.187ZM155.587 175.671C155.587 173.829 156.543 173.069 157.837 173.069C158.92 173.069 159.75 173.59 160.003 174.827V176.529C159.75 177.753 158.92 178.273 157.837 178.273C156.543 178.273 155.587 177.514 155.587 175.671ZM166.265 179.187C168.22 179.187 169.641 178.104 169.641 175.671C169.641 173.238 168.22 172.155 166.265 172.155C164.31 172.155 162.89 173.238 162.89 175.671C162.89 178.104 164.31 179.187 166.265 179.187ZM164.015 175.671C164.015 173.829 164.971 173.069 166.265 173.069C167.559 173.069 168.516 173.829 168.516 175.671C168.516 177.514 167.559 178.273 166.265 178.273C164.971 178.273 164.015 177.514 164.015 175.671ZM174.979 175.671C174.979 178.104 176.414 179.187 178.369 179.187C179.902 179.187 181.055 178.54 181.491 177.106H180.352C179.986 177.936 179.255 178.273 178.369 178.273C176.878 178.273 176.189 177.274 176.104 175.924H181.632V175.01C181.561 173.154 180.141 172.155 178.369 172.155C176.414 172.155 174.979 173.238 174.979 175.671ZM176.161 175.01C176.343 173.871 177.033 173.069 178.369 173.069C179.564 173.069 180.493 173.772 180.493 175.01H176.161ZM183.46 179.047H184.515V172.296H183.46V179.047ZM184.515 170.749V169.483H183.46V170.749H184.515ZM189.322 179.187C190.673 179.187 191.46 178.653 191.91 177.767L192.009 179.047H192.923V172.296H191.868V175.137C191.868 176.838 191.277 178.273 189.674 178.273C188.718 178.273 187.888 177.865 187.888 176.417V172.296H186.833V176.417C186.819 178.372 187.747 179.187 189.322 179.187ZM197.736 179.187C199.48 179.187 200.549 178.681 200.549 177.204C200.549 174.588 196.077 175.938 196.077 174.054C196.077 173.421 196.654 173.069 197.708 173.069C198.805 173.069 199.255 173.435 199.34 174.152H200.395C200.296 172.9 199.466 172.155 197.708 172.155C196.133 172.155 194.994 172.732 194.994 174.096C194.994 176.951 199.466 175.657 199.466 177.246C199.466 177.893 198.946 178.273 197.722 178.273C196.471 178.273 195.992 177.879 195.922 177.12H194.825C194.895 178.414 195.739 179.187 197.736 179.187ZM203.507 179.047V176.206C203.507 174.504 204.056 173.069 205.504 173.069C206.376 173.069 207.136 173.477 207.136 174.926V179.047H208.191V176.206C208.191 174.504 208.739 173.069 210.188 173.069C211.06 173.069 211.819 173.477 211.819 174.926V179.047H212.874V174.926C212.888 172.971 212.016 172.155 210.554 172.155C209.203 172.155 208.458 172.76 208.05 173.73C207.755 172.633 206.995 172.155 205.87 172.155C204.618 172.155 203.887 172.675 203.465 173.519L203.367 172.296H202.452V179.047H203.507ZM218.076 179.187C220.031 179.187 221.452 178.104 221.452 175.671C221.452 173.238 220.031 172.155 218.076 172.155C216.121 172.155 214.701 173.238 214.701 175.671C214.701 178.104 216.121 179.187 218.076 179.187ZM215.826 175.671C215.826 173.829 216.782 173.069 218.076 173.069C219.37 173.069 220.327 173.829 220.327 175.671C220.327 177.514 219.37 178.273 218.076 178.273C216.782 178.273 215.826 177.514 215.826 175.671ZM225.936 179.187C227.019 179.187 227.834 178.808 228.341 177.992L228.467 179.047H229.381V169.483H228.327V173.322C227.82 172.521 227.004 172.155 225.936 172.155C224.107 172.155 222.785 173.238 222.785 175.671C222.785 178.104 224.107 179.187 225.936 179.187ZM223.91 175.671C223.91 173.829 224.867 173.069 226.161 173.069C227.244 173.069 228.073 173.59 228.327 174.827V176.529C228.073 177.753 227.244 178.273 226.161 178.273C224.867 178.273 223.91 177.514 223.91 175.671ZM236.287 173.139V176.993C236.287 178.568 236.906 179.047 238.115 179.047H239.339V178.132H238.383C237.525 178.132 237.342 177.978 237.342 176.867V173.139H239.269V172.296H237.342V170.27H236.287V172.296H235.077V173.139H236.287ZM240.528 175.671C240.528 178.104 241.963 179.187 243.917 179.187C245.451 179.187 246.604 178.54 247.04 177.106H245.901C245.535 177.936 244.804 178.273 243.917 178.273C242.427 178.273 241.737 177.274 241.653 175.924H247.18V175.01C247.11 173.154 245.69 172.155 243.917 172.155C241.963 172.155 240.528 173.238 240.528 175.671ZM241.709 175.01C241.892 173.871 242.581 173.069 243.917 173.069C245.113 173.069 246.041 173.772 246.041 175.01H241.709ZM250.063 179.047V176.206C250.063 174.504 250.612 173.069 252.06 173.069C252.932 173.069 253.692 173.477 253.692 174.926V179.047H254.747V176.206C254.747 174.504 255.295 173.069 256.744 173.069C257.616 173.069 258.375 173.477 258.375 174.926V179.047H259.43V174.926C259.444 172.971 258.572 172.155 257.11 172.155C255.759 172.155 255.014 172.76 254.606 173.73C254.311 172.633 253.551 172.155 252.426 172.155C251.174 172.155 250.443 172.675 250.021 173.519L249.923 172.296H249.008V179.047H250.063ZM261.749 181.86H262.804V178.02C263.31 178.822 264.126 179.187 265.195 179.187C267.023 179.187 268.345 178.104 268.345 175.671C268.345 173.238 267.023 172.155 265.195 172.155C264.112 172.155 263.296 172.535 262.79 173.35L262.663 172.296H261.749V181.86ZM262.804 174.813C263.057 173.59 263.887 173.069 264.97 173.069C266.264 173.069 267.22 173.829 267.22 175.671C267.22 177.514 266.264 178.273 264.97 178.273C263.887 178.273 263.057 177.753 262.804 176.515V174.813ZM273.06 179.187C275.015 179.187 276.435 178.104 276.435 175.671C276.435 173.238 275.015 172.155 273.06 172.155C271.105 172.155 269.684 173.238 269.684 175.671C269.684 178.104 271.105 179.187 273.06 179.187ZM270.81 175.671C270.81 173.829 271.766 173.069 273.06 173.069C274.354 173.069 275.31 173.829 275.31 175.671C275.31 177.514 274.354 178.273 273.06 178.273C271.766 178.273 270.81 177.514 270.81 175.671ZM278.261 172.296V179.047H279.316V175.615C279.316 174.279 280.441 173.28 281.777 173.28H281.96V172.155C280.779 172.155 279.85 172.675 279.288 173.716L279.175 172.296H278.261ZM29.1886 196.047H30.2435V189.296H29.1886V196.047ZM30.2435 187.749V186.483H29.1886V187.749H30.2435ZM32.5619 196.047H33.6168V193.206C33.6168 191.504 34.2216 190.069 35.853 190.069C36.8235 190.069 37.6674 190.477 37.6674 191.926V196.047H38.7222V191.926C38.7363 189.971 37.794 189.155 36.2047 189.155C34.8263 189.155 34.0246 189.703 33.5886 190.59L33.4761 189.296H32.5619V196.047ZM43.9279 196.187C45.5172 196.187 46.6564 195.456 47.0502 193.867H45.9391C45.6156 194.851 44.8843 195.273 43.9279 195.273C42.6621 195.273 41.6775 194.514 41.6775 192.671C41.6775 190.829 42.6621 190.069 43.9279 190.069C44.8702 190.069 45.6016 190.477 45.9251 191.462H47.0502C46.6564 189.872 45.5172 189.155 43.9279 189.155C42.001 189.155 40.5524 190.238 40.5524 192.671C40.5524 195.104 42.001 196.187 43.9279 196.187ZM48.8818 196.047H49.9367V189.296H48.8818V196.047ZM49.9367 187.749V186.483H48.8818V187.749H49.9367ZM54.9133 196.187C55.9963 196.187 56.812 195.808 57.3184 194.992L57.445 196.047H58.3592V186.483H57.3043V190.322C56.798 189.521 55.9822 189.155 54.9133 189.155C53.0849 189.155 51.7629 190.238 51.7629 192.671C51.7629 195.104 53.0849 196.187 54.9133 196.187ZM52.888 192.671C52.888 190.829 53.8444 190.069 55.1384 190.069C56.2213 190.069 57.0511 190.59 57.3043 191.827V193.529C57.0511 194.753 56.2213 195.273 55.1384 195.273C53.8444 195.273 52.888 194.514 52.888 192.671ZM60.6829 196.047H61.7377V189.296H60.6829V196.047ZM61.7377 187.749V186.483H60.6829V187.749H61.7377ZM66.7144 196.187C67.7974 196.187 68.6131 195.808 69.1195 194.992L69.246 196.047H70.1602V186.483H69.1054V190.322C68.5991 189.521 67.7833 189.155 66.7144 189.155C64.886 189.155 63.5639 190.238 63.5639 192.671C63.5639 195.104 64.886 196.187 66.7144 196.187ZM64.6891 192.671C64.6891 190.829 65.6455 190.069 66.9394 190.069C68.0224 190.069 68.8522 190.59 69.1054 191.827V193.529C68.8522 194.753 68.0224 195.273 66.9394 195.273C65.6455 195.273 64.6891 194.514 64.6891 192.671ZM74.9734 196.187C76.3236 196.187 77.1112 195.653 77.5613 194.767L77.6597 196.047H78.5739V189.296H77.5191V192.137C77.5191 193.838 76.9284 195.273 75.325 195.273C74.3686 195.273 73.5388 194.865 73.5388 193.417V189.296H72.484V193.417C72.4699 195.372 73.3982 196.187 74.9734 196.187ZM80.898 196.047H81.9528V193.206C81.9528 191.504 82.5576 190.069 84.1891 190.069C85.1596 190.069 86.0035 190.477 86.0035 191.926V196.047H87.0583V191.926C87.0724 189.971 86.13 189.155 84.5407 189.155C83.1624 189.155 82.3607 189.703 81.9247 190.59L81.8122 189.296H80.898V196.047ZM89.9574 190.139V193.993C89.9574 195.568 90.5762 196.047 91.7858 196.047H93.0094V195.132H92.053C91.1951 195.132 91.0122 194.978 91.0122 193.867V190.139H92.9391V189.296H91.0122V187.27H89.9574V189.296H88.7478V190.139H89.9574ZM101.185 196.187C102.535 196.187 103.323 195.653 103.773 194.767L103.872 196.047H104.786V189.296H103.731V192.137C103.731 193.838 103.14 195.273 101.537 195.273C100.58 195.273 99.7506 194.865 99.7506 193.417V189.296H98.6958V193.417C98.6817 195.372 99.61 196.187 101.185 196.187ZM107.686 190.139V193.993C107.686 195.568 108.305 196.047 109.515 196.047H110.738V195.132H109.782C108.924 195.132 108.741 194.978 108.741 193.867V190.139H110.668V189.296H108.741V187.27H107.686V189.296H106.477V190.139H107.686ZM116.425 196.047H117.48V186.483H116.425V196.047ZM121.627 196.187C122.949 196.187 123.75 195.681 124.186 194.964C124.299 195.737 124.707 196.047 125.719 196.047H126.029V195.048H125.719C125.368 195.048 125.171 194.837 125.171 194.218V191.462C125.171 189.872 124.327 189.155 122.386 189.155C120.544 189.155 119.658 189.943 119.601 191.265H120.642C120.712 190.463 121.162 190.069 122.4 190.069C123.511 190.069 124.074 190.463 124.144 191.433C123.961 192.924 119.376 191.574 119.376 194.317C119.376 195.836 120.53 196.187 121.627 196.187ZM120.459 194.303C120.459 192.77 123.005 193.473 124.144 192.601V193.177C124.144 194.373 123.413 195.343 121.908 195.343C120.909 195.343 120.459 194.921 120.459 194.303ZM127.512 186.483V196.047H128.426L128.552 195.006C129.045 195.808 129.832 196.187 130.887 196.187C132.673 196.187 134.108 195.104 134.108 192.671C134.108 190.238 132.673 189.155 130.887 189.155C129.846 189.155 129.059 189.521 128.567 190.308V186.483H127.512ZM128.567 191.827C128.82 190.59 129.65 190.069 130.733 190.069C132.026 190.069 132.983 190.829 132.983 192.671C132.983 194.514 132.026 195.273 130.733 195.273C129.65 195.273 128.82 194.753 128.567 193.529V191.827ZM138.823 196.187C140.778 196.187 142.198 195.104 142.198 192.671C142.198 190.238 140.778 189.155 138.823 189.155C136.868 189.155 135.447 190.238 135.447 192.671C135.447 195.104 136.868 196.187 138.823 196.187ZM136.572 192.671C136.572 190.829 137.529 190.069 138.823 190.069C140.117 190.069 141.073 190.829 141.073 192.671C141.073 194.514 140.117 195.273 138.823 195.273C137.529 195.273 136.572 194.514 136.572 192.671ZM144.024 189.296V196.047H145.079V192.615C145.079 191.279 146.204 190.28 147.54 190.28H147.723V189.155C146.541 189.155 145.613 189.675 145.051 190.716L144.938 189.296H144.024ZM148.993 192.671C148.993 195.104 150.427 196.187 152.382 196.187C153.915 196.187 155.069 195.54 155.505 194.106H154.365C154 194.936 153.268 195.273 152.382 195.273C150.891 195.273 150.202 194.274 150.118 192.924H155.645V192.01C155.575 190.154 154.154 189.155 152.382 189.155C150.427 189.155 148.993 190.238 148.993 192.671ZM150.174 192.01C150.357 190.871 151.046 190.069 152.382 190.069C153.578 190.069 154.506 190.772 154.506 192.01H150.174ZM160.986 192.671C160.986 195.104 162.421 196.187 164.376 196.187C165.909 196.187 167.062 195.54 167.498 194.106H166.359C165.993 194.936 165.262 195.273 164.376 195.273C162.885 195.273 162.196 194.274 162.111 192.924H167.639V192.01C167.568 190.154 166.148 189.155 164.376 189.155C162.421 189.155 160.986 190.238 160.986 192.671ZM162.167 192.01C162.35 190.871 163.039 190.069 164.376 190.069C165.571 190.069 166.499 190.772 166.499 192.01H162.167ZM170.043 190.139V193.993C170.043 195.568 170.662 196.047 171.872 196.047H173.095V195.132H172.139C171.281 195.132 171.098 194.978 171.098 193.867V190.139H173.025V189.296H171.098V187.27H170.043V189.296H168.834V190.139H170.043ZM181.44 196.187C182.523 196.187 183.339 195.808 183.845 194.992L183.971 196.047H184.886V186.483H183.831V190.322C183.324 189.521 182.509 189.155 181.44 189.155C179.611 189.155 178.289 190.238 178.289 192.671C178.289 195.104 179.611 196.187 181.44 196.187ZM179.414 192.671C179.414 190.829 180.371 190.069 181.665 190.069C182.748 190.069 183.578 190.59 183.831 191.827V193.529C183.578 194.753 182.748 195.273 181.665 195.273C180.371 195.273 179.414 194.514 179.414 192.671ZM190.093 196.187C192.048 196.187 193.468 195.104 193.468 192.671C193.468 190.238 192.048 189.155 190.093 189.155C188.138 189.155 186.717 190.238 186.717 192.671C186.717 195.104 188.138 196.187 190.093 196.187ZM187.842 192.671C187.842 190.829 188.799 190.069 190.093 190.069C191.387 190.069 192.343 190.829 192.343 192.671C192.343 194.514 191.387 195.273 190.093 195.273C188.799 195.273 187.842 194.514 187.842 192.671ZM195.294 196.047H196.349V186.483H195.294V196.047ZM201.55 196.187C203.505 196.187 204.926 195.104 204.926 192.671C204.926 190.238 203.505 189.155 201.55 189.155C199.595 189.155 198.175 190.238 198.175 192.671C198.175 195.104 199.595 196.187 201.55 196.187ZM199.3 192.671C199.3 190.829 200.256 190.069 201.55 190.069C202.844 190.069 203.801 190.829 203.801 192.671C203.801 194.514 202.844 195.273 201.55 195.273C200.256 195.273 199.3 194.514 199.3 192.671ZM206.751 189.296V196.047H207.806V192.615C207.806 191.279 208.931 190.28 210.268 190.28H210.45V189.155C209.269 189.155 208.341 189.675 207.778 190.716L207.666 189.296H206.751ZM211.72 192.671C211.72 195.104 213.155 196.187 215.11 196.187C216.643 196.187 217.796 195.54 218.232 194.106H217.093C216.727 194.936 215.996 195.273 215.11 195.273C213.619 195.273 212.93 194.274 212.845 192.924H218.373V192.01C218.302 190.154 216.882 189.155 215.11 189.155C213.155 189.155 211.72 190.238 211.72 192.671ZM212.902 192.01C213.084 190.871 213.774 190.069 215.11 190.069C216.305 190.069 217.234 190.772 217.234 192.01H212.902ZM225.261 196.047V193.206C225.261 191.504 225.809 190.069 227.258 190.069C228.13 190.069 228.889 190.477 228.889 191.926V196.047H229.944V193.206C229.944 191.504 230.493 190.069 231.941 190.069C232.813 190.069 233.573 190.477 233.573 191.926V196.047H234.628V191.926C234.642 189.971 233.77 189.155 232.307 189.155C230.957 189.155 230.211 189.76 229.804 190.73C229.508 189.633 228.749 189.155 227.624 189.155C226.372 189.155 225.64 189.675 225.218 190.519L225.12 189.296H224.206V196.047H225.261ZM238.775 196.187C240.097 196.187 240.899 195.681 241.335 194.964C241.447 195.737 241.855 196.047 242.868 196.047H243.177V195.048H242.868C242.516 195.048 242.319 194.837 242.319 194.218V191.462C242.319 189.872 241.475 189.155 239.534 189.155C237.692 189.155 236.806 189.943 236.749 191.265H237.79C237.861 190.463 238.311 190.069 239.548 190.069C240.659 190.069 241.222 190.463 241.292 191.433C241.11 192.924 236.524 191.574 236.524 194.317C236.524 195.836 237.678 196.187 238.775 196.187ZM237.607 194.303C237.607 192.77 240.153 193.473 241.292 192.601V193.177C241.292 194.373 240.561 195.343 239.056 195.343C238.057 195.343 237.607 194.921 237.607 194.303ZM244.168 192.601C244.168 194.992 245.49 196.047 247.318 196.047C248.387 196.047 249.203 195.681 249.709 194.879V195.723C249.709 197.453 248.978 198.086 247.698 198.086C246.615 198.086 245.954 197.678 245.743 196.989H244.702C244.913 198.269 245.94 199 247.684 199C249.512 199 250.764 197.889 250.764 195.85V189.296H249.85L249.723 190.35C249.217 189.535 248.401 189.155 247.318 189.155C245.49 189.155 244.168 190.21 244.168 192.601ZM247.543 190.069C248.626 190.069 249.456 190.59 249.709 191.813V193.374C249.456 194.612 248.626 195.132 247.543 195.132C246.249 195.132 245.293 194.387 245.293 192.601C245.293 190.815 246.249 190.069 247.543 190.069ZM253.088 196.047H254.143V193.206C254.143 191.504 254.747 190.069 256.379 190.069C257.349 190.069 258.193 190.477 258.193 191.926V196.047H259.248V191.926C259.262 189.971 258.32 189.155 256.73 189.155C255.352 189.155 254.55 189.703 254.114 190.59L254.002 189.296H253.088V196.047ZM263.399 196.187C264.721 196.187 265.523 195.681 265.959 194.964C266.071 195.737 266.479 196.047 267.492 196.047H267.801V195.048H267.492C267.14 195.048 266.943 194.837 266.943 194.218V191.462C266.943 189.872 266.099 189.155 264.158 189.155C262.316 189.155 261.43 189.943 261.374 191.265H262.414C262.485 190.463 262.935 190.069 264.172 190.069C265.283 190.069 265.846 190.463 265.916 191.433C265.734 192.924 261.148 191.574 261.148 194.317C261.148 195.836 262.302 196.187 263.399 196.187ZM262.231 194.303C262.231 192.77 264.777 193.473 265.916 192.601V193.177C265.916 194.373 265.185 195.343 263.68 195.343C262.682 195.343 262.231 194.921 262.231 194.303ZM31.017 213.187C32.3391 213.187 33.1408 212.681 33.5768 211.964C33.6893 212.737 34.0972 213.047 35.1098 213.047H35.4192V212.048H35.1098C34.7582 212.048 34.5613 211.837 34.5613 211.218V208.462C34.5613 206.872 33.7174 206.155 31.7765 206.155C29.934 206.155 29.048 206.943 28.9917 208.265H30.0325C30.1028 207.463 30.5529 207.069 31.7906 207.069C32.9017 207.069 33.4643 207.463 33.5346 208.433C33.3517 209.924 28.7667 208.574 28.7667 211.317C28.7667 212.836 29.92 213.187 31.017 213.187ZM29.8497 211.303C29.8497 209.77 32.3954 210.473 33.5346 209.601V210.177C33.5346 211.373 32.8032 212.343 31.2983 212.343C30.2997 212.343 29.8497 211.921 29.8497 211.303ZM36.9022 213.047H37.957V203.483H36.9022V213.047ZM40.2755 213.047H41.3303V206.296H40.2755V213.047ZM41.3303 204.749V203.483H40.2755V204.749H41.3303ZM46.307 213.187C47.3759 213.187 48.1917 212.822 48.698 212.02V215.86H49.7528V206.296H48.8386L48.712 207.35C48.2057 206.535 47.39 206.155 46.307 206.155C44.4786 206.155 43.1565 207.238 43.1565 209.671C43.1565 212.104 44.4786 213.187 46.307 213.187ZM44.2817 209.671C44.2817 207.829 45.2381 207.069 46.532 207.069C47.615 207.069 48.4448 207.59 48.698 208.813V210.515C48.4448 211.753 47.615 212.273 46.532 212.273C45.2381 212.273 44.2817 211.514 44.2817 209.671ZM54.566 213.187C55.9162 213.187 56.7038 212.653 57.1539 211.767L57.2523 213.047H58.1665V206.296H57.1117V209.137C57.1117 210.838 56.521 212.273 54.9176 212.273C53.9612 212.273 53.1314 211.865 53.1314 210.417V206.296H52.0766V210.417C52.0625 212.372 52.9908 213.187 54.566 213.187ZM62.319 213.187C63.6411 213.187 64.4428 212.681 64.8788 211.964C64.9913 212.737 65.3991 213.047 66.4118 213.047H66.7212V212.048H66.4118C66.0602 212.048 65.8633 211.837 65.8633 211.218V208.462C65.8633 206.872 65.0194 206.155 63.0785 206.155C61.236 206.155 60.35 206.943 60.2937 208.265H61.3345C61.4048 207.463 61.8549 207.069 63.0926 207.069C64.2037 207.069 64.7662 207.463 64.8366 208.433C64.6537 209.924 60.0687 208.574 60.0687 211.317C60.0687 212.836 61.222 213.187 62.319 213.187ZM61.1516 211.303C61.1516 209.77 63.6973 210.473 64.8366 209.601V210.177C64.8366 211.373 64.1052 212.343 62.6003 212.343C61.6017 212.343 61.1516 211.921 61.1516 211.303ZM68.0635 213.047H69.5403V211.57H68.0635V213.047ZM79.6299 213.187C81.9505 213.187 83.4133 212.104 83.4133 208.687V203.483H82.2881V208.687C82.2881 211.457 81.177 212.132 79.6299 212.132C78.0968 212.132 76.9857 211.457 76.9857 208.687V203.483H75.8606V208.687C75.8606 212.104 77.3233 213.187 79.6299 213.187ZM86.455 207.139V210.993C86.455 212.568 87.0738 213.047 88.2833 213.047H89.507V212.132H88.5506C87.6926 212.132 87.5098 211.978 87.5098 210.867V207.139H89.4366V206.296H87.5098V204.27H86.455V206.296H85.2454V207.139H86.455ZM94.7011 209.671C94.7011 212.104 96.1357 213.187 98.0907 213.187C99.6237 213.187 100.777 212.54 101.213 211.106H100.074C99.7081 211.936 98.9767 212.273 98.0907 212.273C96.5998 212.273 95.9106 211.274 95.8263 209.924H101.354V209.01C101.283 207.154 99.8628 206.155 98.0907 206.155C96.1357 206.155 94.7011 207.238 94.7011 209.671ZM95.8825 209.01C96.0654 207.871 96.7545 207.069 98.0907 207.069C99.2862 207.069 100.214 207.772 100.214 209.01H95.8825ZM103.182 213.047H104.236V210.206C104.236 208.504 104.841 207.069 106.473 207.069C107.443 207.069 108.287 207.477 108.287 208.926V213.047H109.342V208.926C109.356 206.971 108.414 206.155 106.824 206.155C105.446 206.155 104.644 206.703 104.208 207.59L104.096 206.296H103.182V213.047ZM111.664 213.047H112.719V206.296H111.664V213.047ZM112.719 204.749V203.483H111.664V204.749H112.719ZM116.092 213.047V210.206C116.092 208.504 116.641 207.069 118.09 207.069C118.962 207.069 119.721 207.477 119.721 208.926V213.047H120.776V210.206C120.776 208.504 121.324 207.069 122.773 207.069C123.645 207.069 124.405 207.477 124.405 208.926V213.047H125.459V208.926C125.474 206.971 124.602 206.155 123.139 206.155C121.789 206.155 121.043 206.76 120.635 207.73C120.34 206.633 119.58 206.155 118.455 206.155C117.204 206.155 116.472 206.675 116.05 207.519L115.952 206.296H115.038V213.047H116.092ZM133.612 213.187C134.934 213.187 135.735 212.681 136.171 211.964C136.284 212.737 136.692 213.047 137.704 213.047H138.014V212.048H137.704C137.353 212.048 137.156 211.837 137.156 211.218V208.462C137.156 206.872 136.312 206.155 134.371 206.155C132.529 206.155 131.643 206.943 131.586 208.265H132.627C132.697 207.463 133.148 207.069 134.385 207.069C135.496 207.069 136.059 207.463 136.129 208.433C135.946 209.924 131.361 208.574 131.361 211.317C131.361 212.836 132.515 213.187 133.612 213.187ZM132.444 211.303C132.444 209.77 134.99 210.473 136.129 209.601V210.177C136.129 211.373 135.398 212.343 133.893 212.343C132.894 212.343 132.444 211.921 132.444 211.303ZM142.155 213.187C143.238 213.187 144.054 212.808 144.56 211.992L144.687 213.047H145.601V203.483H144.546V207.322C144.04 206.521 143.224 206.155 142.155 206.155C140.327 206.155 139.005 207.238 139.005 209.671C139.005 212.104 140.327 213.187 142.155 213.187ZM140.13 209.671C140.13 207.829 141.086 207.069 142.38 207.069C143.463 207.069 144.293 207.59 144.546 208.827V210.529C144.293 211.753 143.463 212.273 142.38 212.273C141.086 212.273 140.13 211.514 140.13 209.671ZM152.985 213.047V210.206C152.985 208.504 153.533 207.069 154.982 207.069C155.854 207.069 156.613 207.477 156.613 208.926V213.047H157.668V210.206C157.668 208.504 158.217 207.069 159.665 207.069C160.537 207.069 161.297 207.477 161.297 208.926V213.047H162.352V208.926C162.366 206.971 161.494 206.155 160.031 206.155C158.681 206.155 157.935 206.76 157.527 207.73C157.232 206.633 156.473 206.155 155.347 206.155C154.096 206.155 153.364 206.675 152.942 207.519L152.844 206.296H151.93V213.047H152.985ZM164.67 213.047H165.725V206.296H164.67V213.047ZM165.725 204.749V203.483H164.67V204.749H165.725ZM168.044 213.047H169.098V210.206C169.098 208.504 169.703 207.069 171.335 207.069C172.305 207.069 173.149 207.477 173.149 208.926V213.047H174.204V208.926C174.218 206.971 173.276 206.155 171.686 206.155C170.308 206.155 169.506 206.703 169.07 207.59L168.958 206.296H168.044V213.047ZM176.526 213.047H177.581V206.296H176.526V213.047ZM177.581 204.749V203.483H176.526V204.749H177.581ZM180.954 213.047V210.206C180.954 208.504 181.503 207.069 182.952 207.069C183.824 207.069 184.583 207.477 184.583 208.926V213.047H185.638V210.206C185.638 208.504 186.186 207.069 187.635 207.069C188.507 207.069 189.267 207.477 189.267 208.926V213.047H190.321V208.926C190.336 206.971 189.464 206.155 188.001 206.155C186.651 206.155 185.905 206.76 185.497 207.73C185.202 206.633 184.442 206.155 183.317 206.155C182.066 206.155 181.334 206.675 180.912 207.519L180.814 206.296H179.9V213.047H180.954ZM195.801 206.296L198.572 213.047H199.824L202.595 206.296H201.455L199.205 211.992L196.941 206.296H195.801ZM203.303 209.671C203.303 212.104 204.738 213.187 206.693 213.187C208.226 213.187 209.379 212.54 209.815 211.106H208.676C208.31 211.936 207.579 212.273 206.693 212.273C205.202 212.273 204.513 211.274 204.429 209.924H209.956V209.01C209.886 207.154 208.465 206.155 206.693 206.155C204.738 206.155 203.303 207.238 203.303 209.671ZM204.485 209.01C204.668 207.871 205.357 207.069 206.693 207.069C207.888 207.069 208.817 207.772 208.817 209.01H204.485ZM211.784 213.047H212.839V210.206C212.839 208.504 213.444 207.069 215.075 207.069C216.046 207.069 216.889 207.477 216.889 208.926V213.047H217.944V208.926C217.958 206.971 217.016 206.155 215.427 206.155C214.048 206.155 213.247 206.703 212.811 207.59L212.698 206.296H211.784V213.047ZM220.267 213.047H221.322V206.296H220.267V213.047ZM221.322 204.749V203.483H220.267V204.749H221.322ZM225.468 213.187C226.79 213.187 227.592 212.681 228.028 211.964C228.141 212.737 228.549 213.047 229.561 213.047H229.871V212.048H229.561C229.21 212.048 229.013 211.837 229.013 211.218V208.462C229.013 206.872 228.169 206.155 226.228 206.155C224.385 206.155 223.499 206.943 223.443 208.265H224.484C224.554 207.463 225.004 207.069 226.242 207.069C227.353 207.069 227.916 207.463 227.986 208.433C227.803 209.924 223.218 208.574 223.218 211.317C223.218 212.836 224.371 213.187 225.468 213.187ZM224.301 211.303C224.301 209.77 226.847 210.473 227.986 209.601V210.177C227.986 211.373 227.255 212.343 225.75 212.343C224.751 212.343 224.301 211.921 224.301 211.303ZM232.408 213.047V210.206C232.408 208.504 232.957 207.069 234.406 207.069C235.278 207.069 236.037 207.477 236.037 208.926V213.047H237.092V210.206C237.092 208.504 237.64 207.069 239.089 207.069C239.961 207.069 240.721 207.477 240.721 208.926V213.047H241.775V208.926C241.789 206.971 240.917 206.155 239.455 206.155C238.105 206.155 237.359 206.76 236.951 207.73C236.656 206.633 235.896 206.155 234.771 206.155C233.519 206.155 232.788 206.675 232.366 207.519L232.268 206.296H231.354V213.047H232.408ZM243.953 214.594H244.797L245.36 211.64H243.953V214.594Z" fill="white"/>
<g clip-path="url(#clip0)">
<path d="M95.5302 55.5946H91.6915C91.3849 42.9477 83.6786 32.1234 72.4986 27.8544H85.6649C86.0361 30.511 88.2605 32.5611 90.9483 32.5611C93.8946 32.5611 96.291 30.0991 96.291 27.0728C96.291 24.0465 93.8946 21.5845 90.9483 21.5845C88.2605 21.5845 86.0361 23.6354 85.6649 26.2912H67.4001V21.9956C67.4001 21.5641 67.06 21.214 66.6393 21.214H57.4746C57.0547 21.214 56.7139 21.5641 56.7139 21.9956V26.292H38.4499C38.0786 23.6354 35.8542 21.5852 33.1672 21.5852C30.2208 21.5845 27.8237 24.0473 27.8237 27.0736C27.8237 30.0999 30.2208 32.5619 33.1672 32.5619C35.8549 32.5619 38.0786 30.511 38.4499 27.8552H51.6161C40.4362 32.1242 32.7298 42.9477 32.4232 55.5946H28.5845C28.1645 55.5946 27.8237 55.9447 27.8237 56.3762V65.7896C27.8237 66.2218 28.1645 66.5712 28.5845 66.5712H37.75C38.1699 66.5712 38.5107 66.2218 38.5107 65.7896V56.3762C38.5107 55.9447 38.1699 55.5946 37.75 55.5946H33.9447C34.2931 41.9605 43.7066 30.5665 56.7139 28.0099V31.409C56.7139 31.8405 57.0547 32.1906 57.4746 32.1906H66.6393C67.06 32.1906 67.4001 31.8405 67.4001 31.409V28.0099C80.4081 30.5665 89.8216 41.9605 90.17 55.5953H86.3648C85.9441 55.5953 85.604 55.9455 85.604 56.3769V65.7904C85.604 66.2226 85.9441 66.572 86.3648 66.572H95.5302C95.9509 66.572 96.291 66.2226 96.291 65.7904V56.3762C96.291 55.9447 95.9509 55.5946 95.5302 55.5946ZM36.9892 65.0088H29.3452V57.1585H36.9892V65.0088ZM90.9483 23.1476C93.0555 23.1476 94.7695 24.9086 94.7695 27.0728C94.7695 29.237 93.0548 30.9979 90.9483 30.9979C88.8402 30.9979 87.1263 29.237 87.1263 27.0728C87.1263 24.9086 88.8402 23.1476 90.9483 23.1476ZM33.1672 30.9987C31.0599 30.9987 29.3452 29.2378 29.3452 27.0736C29.3452 24.9093 31.0599 23.1484 33.1672 23.1484C35.2745 23.1484 36.9892 24.9093 36.9892 27.0736C36.9892 29.2378 35.2745 30.9987 33.1672 30.9987ZM65.8786 30.6275H58.2354V22.7772H65.8786V30.6275ZM94.7695 65.0088H87.1255V57.1585H94.7695V65.0088Z" fill="white"/>
<path d="M77.5319 68.0581L62.7354 38.0528C62.7027 37.9864 62.6601 37.9286 62.6114 37.8793C62.4721 37.7246 62.2774 37.6245 62.0568 37.6245C61.8362 37.6245 61.6414 37.7246 61.5022 37.8793C61.4535 37.9286 61.4109 37.9864 61.3782 38.0528L46.5817 68.0581C46.4569 68.3113 46.4751 68.6145 46.6303 68.8498L53.8978 79.8788V90.775C53.8978 91.2072 54.2386 91.5566 54.6585 91.5566H69.455C69.8757 91.5566 70.2158 91.2072 70.2158 90.775V79.8788L77.484 68.8498C77.6384 68.6145 77.6574 68.3113 77.5319 68.0581ZM55.4193 89.9942V80.4212H68.6943V89.9942H55.4193ZM69.0511 78.8581H55.0625L48.1412 68.3551L61.296 41.6786V61.7217C61.296 62.1539 61.6368 62.5033 62.0568 62.5033C62.4767 62.5033 62.8175 62.1539 62.8175 61.7217V41.6786L75.9724 68.3543L69.0511 78.8581Z" fill="white"/>
</g>
<defs>
<clipPath id="clip0">
<rect width="68.4477" height="70.323" fill="white" transform="translate(28.2041 21.5908)"/>
</clipPath>
</defs>
</svg>
