<svg width="333" height="209" viewBox="0 0 333 209" fill="none" xmlns="http://www.w3.org/2000/svg">
<path opacity="0.4" d="M43.4103 163.629C44.1019 161.42 43.904 159.314 42.8165 157.312C41.7531 155.318 39.5757 153.133 36.2845 150.758C31.6575 147.596 28.5581 144.397 26.9863 141.163C25.446 137.911 25.2811 134.353 26.4915 130.486C27.7245 126.547 29.8765 123.674 32.9475 121.866C36.0426 120.066 39.6708 119.554 43.832 120.329L46.3017 112.439L51.6696 114.119L49.1886 122.045C53.0506 123.861 55.6548 126.535 57.0013 130.068C58.3718 133.609 58.2864 137.841 56.7452 142.765L50.1164 140.69C51.1765 137.303 51.2139 134.361 50.2288 131.864C49.2436 129.367 47.3821 127.69 44.6441 126.833C41.786 125.938 39.3674 125.999 37.3882 127.014C35.4165 128.005 34.0171 129.822 33.1901 132.464C32.4233 134.914 32.6031 137.119 33.7297 139.08C34.8877 141.025 37.1041 143.169 40.3789 145.513C43.6851 147.84 46.1334 150.044 47.7238 152.124C49.3457 154.187 50.3401 156.318 50.7068 158.516C51.0976 160.722 50.8945 163.098 50.0976 165.644C48.8271 169.702 46.5797 172.585 43.3556 174.292C40.1555 176.007 36.2864 176.404 31.7484 175.485L29.5944 182.366L24.2626 180.697L26.4165 173.816C22.0771 172.009 19.0668 169.326 17.3856 165.767C15.7358 162.192 15.6553 158.027 17.1439 153.271L23.8087 155.357C22.7636 158.696 22.8358 161.54 24.0252 163.89C25.2146 166.24 27.4185 167.919 30.6368 168.927C33.7831 169.911 36.4937 169.929 38.7686 168.98C41.0436 168.031 42.5908 166.247 43.4103 163.629Z" fill="#E94C3D"/>
<path opacity="0.4" d="M308.387 105.3C307.846 103.283 306.678 101.774 304.882 100.774C303.108 99.7681 300.393 99.1556 296.737 98.9361C291.683 98.7623 287.776 97.8227 285.015 96.1175C282.27 94.3846 280.425 91.7524 279.479 88.221C278.515 84.6238 278.766 81.3944 280.233 78.533C281.721 75.6657 284.238 73.522 287.784 72.1018L285.853 64.8964L290.755 63.5828L292.695 70.8211C296.515 70.3382 299.792 71.1176 302.525 73.1593C305.28 75.195 307.261 78.4612 308.465 82.9577L302.412 84.5798C301.583 81.4871 300.19 79.2273 298.232 77.8006C296.275 76.3738 294.046 75.9954 291.546 76.6654C288.935 77.3648 287.122 78.5796 286.104 80.3098C285.081 82.0181 284.892 84.0786 285.539 86.4913C286.138 88.7286 287.341 90.3223 289.147 91.2724C290.97 92.1946 293.695 92.7575 297.322 92.9608C300.966 93.1364 303.897 93.6324 306.114 94.4489C308.347 95.2376 310.134 96.3808 311.476 97.8785C312.84 99.3703 313.833 101.279 314.456 103.604C315.449 107.311 315.13 110.593 313.498 113.452C311.888 116.305 309.132 118.477 305.229 119.97L306.913 126.254L302.044 127.559L300.36 121.275C296.18 121.995 292.59 121.405 289.589 119.506C286.604 117.579 284.53 114.443 283.366 110.1L289.453 108.47C290.27 111.518 291.7 113.651 293.742 114.867C295.784 116.083 298.274 116.297 301.213 115.51C304.087 114.74 306.161 113.443 307.436 111.621C308.71 109.798 309.027 107.691 308.387 105.3Z" fill="#E94C3D"/>
<path opacity="0.4" d="M177.352 83.7635C176.746 80.5517 175.102 78.06 172.418 76.2885C169.769 74.5104 165.606 73.2348 159.929 72.4615C152.065 71.5944 146.08 69.6681 141.974 66.6825C137.896 63.6553 135.327 59.3315 134.268 53.7108C133.188 47.9854 133.961 42.9771 136.586 38.6861C139.246 34.3885 143.426 31.3409 149.124 29.5433L146.962 18.075L154.764 16.6037L156.937 28.1244C162.953 27.8214 167.973 29.4236 171.997 32.9309C176.055 36.4316 178.759 41.7603 180.109 48.9171L170.473 50.734C169.545 45.8115 167.638 42.122 164.753 39.6654C161.867 37.2089 158.435 36.3558 154.455 37.1063C150.3 37.8896 147.328 39.5709 145.536 42.1501C143.739 44.6944 143.202 47.8867 143.926 51.7269C144.597 55.2878 146.286 57.9158 148.992 59.6109C151.726 61.2646 155.91 62.4638 161.546 63.2088C167.21 63.9122 171.723 65.0315 175.086 66.5666C178.476 68.0603 181.13 70.0544 183.046 72.549C184.998 75.0371 186.322 78.1314 187.02 81.832C188.133 87.732 187.248 92.8156 184.365 97.0829C181.517 101.344 176.961 104.408 170.697 106.276L172.583 116.278L164.833 117.739L162.947 107.737C156.342 108.368 150.81 107.025 146.352 103.708C141.923 100.35 139.057 95.2144 137.753 88.302L147.441 86.4753C148.356 91.3279 150.335 94.8231 153.377 96.9609C156.419 99.0986 160.28 99.7265 164.958 98.8444C169.531 97.982 172.919 96.2043 175.123 93.5111C177.327 90.818 178.07 87.5688 177.352 83.7635Z" fill="#E94C3D"/>
</svg>
