<svg width="145" height="65" viewBox="0 0 145 65" fill="none" xmlns="http://www.w3.org/2000/svg">
<path d="M9.93604 45.4844H17.6236L20.5196 37.7442H35.3681L38.2115 45.4844H45.9517L32.3668 9.67935H23.4682L9.93604 45.4844ZM27.9439 17.5775L33.2093 31.7942H22.6784L27.9439 17.5775ZM56.3546 46.0109C60.9356 46.0109 63.8842 44.4839 65.6218 42.2198C66.4117 44.4313 68.0966 45.4844 71.2032 45.4844H73.8359V39.903H72.9408C71.993 39.903 71.5191 39.2711 71.5191 37.6915V28.1084C71.5191 22.0531 67.3068 19.3151 59.8825 19.3151C51.6157 19.3151 48.4565 23.0536 48.1932 28.0031H54.8277C55.0909 25.1071 56.7232 24.212 59.8298 24.212C63.0418 24.212 64.5687 25.423 64.7267 28.1084C64.3055 33.1106 47.1401 28.1084 47.1401 38.7973C47.1401 44.6419 51.9843 46.0109 56.3546 46.0109ZM54.4064 38.376C54.4064 34.0584 60.9882 35.5327 64.7267 33.4792V34.5849C64.7267 38.5866 62.6732 41.4826 58.4608 41.4826C55.7228 41.4826 54.4064 40.2716 54.4064 38.376ZM76.625 45.4844H83.8913V38.2181H76.625V45.4844Z" fill="#E94C3D"/>
<path d="M82.1008 15.4959L2.43053 40.2594L3.31163 45.1545L83.3123 22.2266L82.1008 15.4959Z" fill="black"/>
</svg>
