<svg width="386" height="278" viewBox="0 0 386 278" fill="none" xmlns="http://www.w3.org/2000/svg">
<rect x="1.25746" y="1.8998" width="360.054" height="274.729" rx="8.43876" stroke="#E94C3D" stroke-width="1.87528" stroke-dasharray="3.75 3.75"/>
<path d="M36.4039 122.353H38.7596L45.526 105.311H43.3457L37.5818 120.097L31.8178 105.311H29.6376L36.4039 122.353ZM48.1648 122.353H50.0443V110.323H48.1648V122.353ZM50.0443 107.567V105.311H48.1648V107.567H50.0443ZM58.9118 122.603C60.8415 122.603 62.295 121.927 63.1972 120.473L63.4227 122.353H65.0517V105.311H63.1721V112.153C62.2699 110.724 60.8164 110.073 58.9118 110.073C55.654 110.073 53.2983 112.003 53.2983 116.338C53.2983 120.673 55.654 122.603 58.9118 122.603ZM55.3031 116.338C55.3031 113.055 57.0072 111.702 59.3128 111.702C61.2425 111.702 62.721 112.629 63.1721 114.834V117.867C62.721 120.047 61.2425 120.974 59.3128 120.974C57.0072 120.974 55.3031 119.621 55.3031 116.338ZM68.315 116.338C68.315 120.673 70.8712 122.603 74.3546 122.603C77.0862 122.603 79.1412 121.45 79.9181 118.894H77.8882C77.2366 120.373 75.9334 120.974 74.3546 120.974C71.6982 120.974 70.4702 119.195 70.3199 116.789H80.1687V115.16C80.0434 111.852 77.5122 110.073 74.3546 110.073C70.8712 110.073 68.315 112.003 68.315 116.338ZM70.4201 115.16C70.7459 113.13 71.9739 111.702 74.3546 111.702C76.4848 111.702 78.1388 112.955 78.1388 115.16H70.4201ZM88.5632 122.603C92.0466 122.603 94.5777 120.673 94.5777 116.338C94.5777 112.003 92.0466 110.073 88.5632 110.073C85.0797 110.073 82.5486 112.003 82.5486 116.338C82.5486 120.673 85.0797 122.603 88.5632 122.603ZM84.5535 116.338C84.5535 113.055 86.2576 111.702 88.5632 111.702C90.8687 111.702 92.5729 113.055 92.5729 116.338C92.5729 119.621 90.8687 120.974 88.5632 120.974C86.2576 120.974 84.5535 119.621 84.5535 116.338ZM105.218 105.311V122.353H117.021V120.473H107.223V114.734H115.392V112.855H107.223V107.191H117.021V105.311H105.218ZM124.892 122.603C126.821 122.603 128.275 121.927 129.177 120.473L129.402 122.353H131.031V105.311H129.152V112.153C128.25 110.724 126.796 110.073 124.892 110.073C121.634 110.073 119.278 112.003 119.278 116.338C119.278 120.673 121.634 122.603 124.892 122.603ZM121.283 116.338C121.283 113.055 122.987 111.702 125.293 111.702C127.222 111.702 128.701 112.629 129.152 114.834V117.867C128.701 120.047 127.222 120.974 125.293 120.974C122.987 120.974 121.283 119.621 121.283 116.338ZM135.172 122.353H137.051V110.323H135.172V122.353ZM137.051 107.567V105.311H135.172V107.567H137.051ZM142.21 111.827V118.694C142.21 121.5 143.313 122.353 145.468 122.353H147.648V120.724H145.944C144.415 120.724 144.09 120.448 144.09 118.468V111.827H147.523V110.323H144.09V106.715H142.21V110.323H140.055V111.827H142.21ZM150.644 122.353H152.523V110.323H150.644V122.353ZM152.523 107.567V105.311H150.644V107.567H152.523ZM156.654 122.353H158.534V117.29C158.534 114.258 159.612 111.702 162.519 111.702C164.248 111.702 165.751 112.429 165.751 115.01V122.353H167.631V115.01C167.656 111.526 165.977 110.073 163.145 110.073C160.689 110.073 159.261 111.05 158.484 112.629L158.283 110.323H156.654V122.353ZM170.892 116.213C170.892 120.473 173.248 122.353 176.506 122.353C178.41 122.353 179.864 121.701 180.766 120.273V121.776C180.766 124.859 179.463 125.986 177.182 125.986C175.253 125.986 174.075 125.26 173.699 124.032H171.844C172.22 126.312 174.05 127.615 177.157 127.615C180.415 127.615 182.645 125.635 182.645 122.002V110.323H181.016L180.791 112.203C179.889 110.749 178.435 110.073 176.506 110.073C173.248 110.073 170.892 111.952 170.892 116.213ZM176.907 111.702C178.836 111.702 180.315 112.629 180.766 114.809V117.591C180.315 119.796 178.836 120.724 176.907 120.724C174.601 120.724 172.897 119.395 172.897 116.213C172.897 113.03 174.601 111.702 176.907 111.702Z" fill="white"/>
<path d="M30.5121 162.047H36.574V160.992H31.6373V152.483H30.5121V162.047ZM41.3529 162.187C43.3078 162.187 44.7284 161.104 44.7284 158.671C44.7284 156.238 43.3078 155.155 41.3529 155.155C39.3979 155.155 37.9774 156.238 37.9774 158.671C37.9774 161.104 39.3979 162.187 41.3529 162.187ZM39.1025 158.671C39.1025 156.829 40.0589 156.069 41.3529 156.069C42.6468 156.069 43.6032 156.829 43.6032 158.671C43.6032 160.514 42.6468 161.273 41.3529 161.273C40.0589 161.273 39.1025 160.514 39.1025 158.671ZM46.554 155.296V162.047H47.6089V158.615C47.6089 157.279 48.734 156.28 50.0702 156.28H50.253V155.155C49.0716 155.155 48.1433 155.675 47.5807 156.716L47.4682 155.296H46.554ZM51.5228 158.671C51.5228 161.104 52.9574 162.187 54.9123 162.187C56.4454 162.187 57.5987 161.54 58.0347 160.106H56.8955C56.5298 160.936 55.7984 161.273 54.9123 161.273C53.4215 161.273 52.7323 160.274 52.6479 158.924H58.1753V158.01C58.105 156.154 56.6845 155.155 54.9123 155.155C52.9574 155.155 51.5228 156.238 51.5228 158.671ZM52.7042 158.01C52.887 156.871 53.5762 156.069 54.9123 156.069C56.1078 156.069 57.0361 156.772 57.0361 158.01H52.7042ZM61.0581 162.047V159.206C61.0581 157.504 61.6067 156.069 63.0553 156.069C63.9273 156.069 64.6868 156.477 64.6868 157.926V162.047H65.7416V159.206C65.7416 157.504 66.2902 156.069 67.7388 156.069C68.6108 156.069 69.3703 156.477 69.3703 157.926V162.047H70.4252V157.926C70.4392 155.971 69.5672 155.155 68.1045 155.155C66.7543 155.155 66.0089 155.76 65.601 156.73C65.3056 155.633 64.5462 155.155 63.421 155.155C62.1692 155.155 61.4379 155.675 61.0159 156.519L60.9175 155.296H60.0033V162.047H61.0581ZM76.749 162.047H77.8038V155.296H76.749V162.047ZM77.8038 153.749V152.483H76.749V153.749H77.8038ZM80.1223 164.86H81.1771V161.02C81.6834 161.822 82.4992 162.187 83.5681 162.187C85.3965 162.187 86.7186 161.104 86.7186 158.671C86.7186 156.238 85.3965 155.155 83.5681 155.155C82.4851 155.155 81.6694 155.535 81.163 156.35L81.0365 155.296H80.1223V164.86ZM81.1771 157.813C81.4303 156.59 82.2601 156.069 83.3431 156.069C84.637 156.069 85.5934 156.829 85.5934 158.671C85.5934 160.514 84.637 161.273 83.3431 161.273C82.2601 161.273 81.4303 160.753 81.1771 159.515V157.813ZM91.0395 162.187C92.7835 162.187 93.8524 161.681 93.8524 160.204C93.8524 157.588 89.3798 158.938 89.3798 157.054C89.3798 156.421 89.9565 156.069 91.0113 156.069C92.1084 156.069 92.5584 156.435 92.6428 157.152H93.6977C93.5992 155.9 92.7694 155.155 91.0113 155.155C89.4361 155.155 88.2969 155.732 88.2969 157.096C88.2969 159.951 92.7694 158.657 92.7694 160.246C92.7694 160.893 92.249 161.273 91.0254 161.273C89.7737 161.273 89.2955 160.879 89.2251 160.12H88.1281C88.1984 161.414 89.0423 162.187 91.0395 162.187ZM98.2448 162.187C99.595 162.187 100.383 161.653 100.833 160.767L100.931 162.047H101.845V155.296H100.791V158.137C100.791 159.838 100.2 161.273 98.5964 161.273C97.6401 161.273 96.8102 160.865 96.8102 159.417V155.296H95.7554V159.417C95.7413 161.372 96.6696 162.187 98.2448 162.187ZM105.224 162.047V159.206C105.224 157.504 105.773 156.069 107.221 156.069C108.093 156.069 108.853 156.477 108.853 157.926V162.047H109.908V159.206C109.908 157.504 110.456 156.069 111.905 156.069C112.777 156.069 113.536 156.477 113.536 157.926V162.047H114.591V157.926C114.605 155.971 113.733 155.155 112.271 155.155C110.92 155.155 110.175 155.76 109.767 156.73C109.472 155.633 108.712 155.155 107.587 155.155C106.335 155.155 105.604 155.675 105.182 156.519L105.084 155.296H104.169V162.047H105.224ZM123.573 162.187C124.656 162.187 125.472 161.808 125.978 160.992L126.105 162.047H127.019V152.483H125.964V156.322C125.458 155.521 124.642 155.155 123.573 155.155C121.745 155.155 120.423 156.238 120.423 158.671C120.423 161.104 121.745 162.187 123.573 162.187ZM121.548 158.671C121.548 156.829 122.504 156.069 123.798 156.069C124.881 156.069 125.711 156.59 125.964 157.827V159.529C125.711 160.753 124.881 161.273 123.798 161.273C122.504 161.273 121.548 160.514 121.548 158.671ZM132.226 162.187C134.181 162.187 135.602 161.104 135.602 158.671C135.602 156.238 134.181 155.155 132.226 155.155C130.271 155.155 128.851 156.238 128.851 158.671C128.851 161.104 130.271 162.187 132.226 162.187ZM129.976 158.671C129.976 156.829 130.932 156.069 132.226 156.069C133.52 156.069 134.476 156.829 134.476 158.671C134.476 160.514 133.52 161.273 132.226 161.273C130.932 161.273 129.976 160.514 129.976 158.671ZM137.427 162.047H138.482V152.483H137.427V162.047ZM143.684 162.187C145.639 162.187 147.059 161.104 147.059 158.671C147.059 156.238 145.639 155.155 143.684 155.155C141.729 155.155 140.308 156.238 140.308 158.671C140.308 161.104 141.729 162.187 143.684 162.187ZM141.433 158.671C141.433 156.829 142.39 156.069 143.684 156.069C144.978 156.069 145.934 156.829 145.934 158.671C145.934 160.514 144.978 161.273 143.684 161.273C142.39 161.273 141.433 160.514 141.433 158.671ZM148.885 155.296V162.047H149.94V158.615C149.94 157.279 151.065 156.28 152.401 156.28H152.584V155.155C151.403 155.155 150.474 155.675 149.912 156.716L149.799 155.296H148.885ZM160.841 162.187C162.585 162.187 163.653 161.681 163.653 160.204C163.653 157.588 159.181 158.938 159.181 157.054C159.181 156.421 159.758 156.069 160.812 156.069C161.909 156.069 162.36 156.435 162.444 157.152H163.499C163.4 155.9 162.57 155.155 160.812 155.155C159.237 155.155 158.098 155.732 158.098 157.096C158.098 159.951 162.57 158.657 162.57 160.246C162.57 160.893 162.05 161.273 160.826 161.273C159.575 161.273 159.097 160.879 159.026 160.12H157.929C157.999 161.414 158.843 162.187 160.841 162.187ZM165.556 162.047H166.611V155.296H165.556V162.047ZM166.611 153.749V152.483H165.556V153.749H166.611ZM169.506 156.139V159.993C169.506 161.568 170.125 162.047 171.335 162.047H172.558V161.132H171.602C170.744 161.132 170.561 160.978 170.561 159.867V156.139H172.488V155.296H170.561V153.27H169.506V155.296H168.297V156.139H169.506ZM180.073 162.187C181.395 162.187 182.197 161.681 182.633 160.964C182.745 161.737 183.153 162.047 184.166 162.047H184.475V161.048H184.166C183.814 161.048 183.617 160.837 183.617 160.218V157.462C183.617 155.872 182.774 155.155 180.833 155.155C178.99 155.155 178.104 155.943 178.048 157.265H179.089C179.159 156.463 179.609 156.069 180.847 156.069C181.958 156.069 182.52 156.463 182.591 157.433C182.408 158.924 177.823 157.574 177.823 160.317C177.823 161.836 178.976 162.187 180.073 162.187ZM178.906 160.303C178.906 158.77 181.452 159.473 182.591 158.601V159.177C182.591 160.373 181.859 161.343 180.355 161.343C179.356 161.343 178.906 160.921 178.906 160.303ZM187.013 162.047V159.206C187.013 157.504 187.562 156.069 189.01 156.069C189.882 156.069 190.642 156.477 190.642 157.926V162.047H191.697V159.206C191.697 157.504 192.245 156.069 193.694 156.069C194.566 156.069 195.325 156.477 195.325 157.926V162.047H196.38V157.926C196.394 155.971 195.522 155.155 194.06 155.155C192.709 155.155 191.964 155.76 191.556 156.73C191.261 155.633 190.501 155.155 189.376 155.155C188.124 155.155 187.393 155.675 186.971 156.519L186.873 155.296H185.958V162.047H187.013ZM198.207 158.671C198.207 161.104 199.641 162.187 201.596 162.187C203.129 162.187 204.283 161.54 204.719 160.106H203.579C203.214 160.936 202.482 161.273 201.596 161.273C200.105 161.273 199.416 160.274 199.332 158.924H204.859V158.01C204.789 156.154 203.368 155.155 201.596 155.155C199.641 155.155 198.207 156.238 198.207 158.671ZM199.388 158.01C199.571 156.871 200.26 156.069 201.596 156.069C202.792 156.069 203.72 156.772 203.72 158.01H199.388ZM207.264 156.139V159.993C207.264 161.568 207.883 162.047 209.092 162.047H210.316V161.132H209.359C208.502 161.132 208.319 160.978 208.319 159.867V156.139H210.246V155.296H208.319V153.27H207.264V155.296H206.054V156.139H207.264ZM211.856 163.594H212.7L213.263 160.64H211.856V163.594ZM222.327 162.187C223.917 162.187 225.056 161.456 225.45 159.867H224.339C224.015 160.851 223.284 161.273 222.327 161.273C221.062 161.273 220.077 160.514 220.077 158.671C220.077 156.829 221.062 156.069 222.327 156.069C223.27 156.069 224.001 156.477 224.325 157.462H225.45C225.056 155.872 223.917 155.155 222.327 155.155C220.401 155.155 218.952 156.238 218.952 158.671C218.952 161.104 220.401 162.187 222.327 162.187ZM230.165 162.187C232.12 162.187 233.54 161.104 233.54 158.671C233.54 156.238 232.12 155.155 230.165 155.155C228.21 155.155 226.789 156.238 226.789 158.671C226.789 161.104 228.21 162.187 230.165 162.187ZM227.914 158.671C227.914 156.829 228.871 156.069 230.165 156.069C231.459 156.069 232.415 156.829 232.415 158.671C232.415 160.514 231.459 161.273 230.165 161.273C228.871 161.273 227.914 160.514 227.914 158.671ZM235.366 162.047H236.421V159.206C236.421 157.504 237.025 156.069 238.657 156.069C239.627 156.069 240.471 156.477 240.471 157.926V162.047H241.526V157.926C241.54 155.971 240.598 155.155 239.009 155.155C237.63 155.155 236.828 155.703 236.392 156.59L236.28 155.296H235.366V162.047ZM246.338 162.187C248.082 162.187 249.151 161.681 249.151 160.204C249.151 157.588 244.678 158.938 244.678 157.054C244.678 156.421 245.255 156.069 246.31 156.069C247.407 156.069 247.857 156.435 247.941 157.152H248.996C248.898 155.9 248.068 155.155 246.31 155.155C244.735 155.155 243.595 155.732 243.595 157.096C243.595 159.951 248.068 158.657 248.068 160.246C248.068 160.893 247.547 161.273 246.324 161.273C245.072 161.273 244.594 160.879 244.524 160.12H243.427C243.497 161.414 244.341 162.187 246.338 162.187ZM250.562 158.671C250.562 161.104 251.996 162.187 253.951 162.187C255.484 162.187 256.637 161.54 257.073 160.106H255.934C255.569 160.936 254.837 161.273 253.951 161.273C252.46 161.273 251.771 160.274 251.687 158.924H257.214V158.01C257.144 156.154 255.723 155.155 253.951 155.155C251.996 155.155 250.562 156.238 250.562 158.671ZM251.743 158.01C251.926 156.871 252.615 156.069 253.951 156.069C255.147 156.069 256.075 156.772 256.075 158.01H251.743ZM261.925 162.187C263.515 162.187 264.654 161.456 265.048 159.867H263.937C263.613 160.851 262.882 161.273 261.925 161.273C260.66 161.273 259.675 160.514 259.675 158.671C259.675 156.829 260.66 156.069 261.925 156.069C262.868 156.069 263.599 156.477 263.923 157.462H265.048C264.654 155.872 263.515 155.155 261.925 155.155C259.999 155.155 258.55 156.238 258.55 158.671C258.55 161.104 259.999 162.187 261.925 162.187ZM267.456 156.139V159.993C267.456 161.568 268.075 162.047 269.284 162.047H270.508V161.132H269.552C268.694 161.132 268.511 160.978 268.511 159.867V156.139H270.438V155.296H268.511V153.27H267.456V155.296H266.246V156.139H267.456ZM271.697 158.671C271.697 161.104 273.132 162.187 275.087 162.187C276.62 162.187 277.773 161.54 278.209 160.106H277.07C276.704 160.936 275.973 161.273 275.087 161.273C273.596 161.273 272.906 160.274 272.822 158.924H278.349V158.01C278.279 156.154 276.859 155.155 275.087 155.155C273.132 155.155 271.697 156.238 271.697 158.671ZM272.878 158.01C273.061 156.871 273.75 156.069 275.087 156.069C276.282 156.069 277.21 156.772 277.21 158.01H272.878ZM280.754 156.139V159.993C280.754 161.568 281.373 162.047 282.583 162.047H283.806V161.132H282.85C281.992 161.132 281.809 160.978 281.809 159.867V156.139H283.736V155.296H281.809V153.27H280.754V155.296H279.545V156.139H280.754ZM287.977 162.187C289.327 162.187 290.115 161.653 290.565 160.767L290.663 162.047H291.577V155.296H290.523V158.137C290.523 159.838 289.932 161.273 288.328 161.273C287.372 161.273 286.542 160.865 286.542 159.417V155.296H285.487V159.417C285.473 161.372 286.402 162.187 287.977 162.187ZM293.901 155.296V162.047H294.956V158.615C294.956 157.279 296.081 156.28 297.418 156.28H297.6V155.155C296.419 155.155 295.491 155.675 294.928 156.716L294.816 155.296H293.901ZM32.1999 179.187C33.522 179.187 34.3236 178.681 34.7596 177.964C34.8722 178.737 35.28 179.047 36.2927 179.047H36.6021V178.048H36.2927C35.9411 178.048 35.7442 177.837 35.7442 177.218V174.462C35.7442 172.872 34.9003 172.155 32.9594 172.155C31.1169 172.155 30.2308 172.943 30.1746 174.265H31.2154C31.2857 173.463 31.7358 173.069 32.9734 173.069C34.0845 173.069 34.6471 173.463 34.7174 174.433C34.5346 175.924 29.9495 174.574 29.9495 177.317C29.9495 178.836 31.1028 179.187 32.1999 179.187ZM31.0325 177.303C31.0325 175.77 33.5782 176.473 34.7174 175.601V176.177C34.7174 177.373 33.9861 178.343 32.4812 178.343C31.4826 178.343 31.0325 177.921 31.0325 177.303ZM40.7432 179.187C41.8262 179.187 42.642 178.808 43.1483 177.992L43.2749 179.047H44.1891V169.483H43.1342V173.322C42.6279 172.521 41.8122 172.155 40.7432 172.155C38.9149 172.155 37.5928 173.238 37.5928 175.671C37.5928 178.104 38.9149 179.187 40.7432 179.187ZM38.7179 175.671C38.7179 173.829 39.6743 173.069 40.9683 173.069C42.0513 173.069 42.8811 173.59 43.1342 174.827V176.529C42.8811 177.753 42.0513 178.273 40.9683 178.273C39.6743 178.273 38.7179 177.514 38.7179 175.671ZM46.5128 179.047H47.5677V172.296H46.5128V179.047ZM47.5677 170.749V169.483H46.5128V170.749H47.5677ZM49.8861 181.86H50.941V178.02C51.4473 178.822 52.263 179.187 53.3319 179.187C55.1603 179.187 56.4824 178.104 56.4824 175.671C56.4824 173.238 55.1603 172.155 53.3319 172.155C52.249 172.155 51.4332 172.535 50.9269 173.35L50.8003 172.296H49.8861V181.86ZM50.941 174.813C51.1941 173.59 52.0239 173.069 53.1069 173.069C54.4009 173.069 55.3572 173.829 55.3572 175.671C55.3572 177.514 54.4009 178.273 53.1069 178.273C52.0239 178.273 51.1941 177.753 50.941 176.515V174.813ZM58.3139 179.047H59.3687V172.296H58.3139V179.047ZM59.3687 170.749V169.483H58.3139V170.749H59.3687ZM64.1766 179.187C65.9206 179.187 66.9895 178.681 66.9895 177.204C66.9895 174.588 62.517 175.938 62.517 174.054C62.517 173.421 63.0937 173.069 64.1485 173.069C65.2455 173.069 65.6956 173.435 65.78 174.152H66.8348C66.7364 172.9 65.9066 172.155 64.1485 172.155C62.5733 172.155 61.434 172.732 61.434 174.096C61.434 176.951 65.9066 175.657 65.9066 177.246C65.9066 177.893 65.3862 178.273 64.1626 178.273C62.9108 178.273 62.4326 177.879 62.3623 177.12H61.2653C61.3356 178.414 62.1795 179.187 64.1766 179.187ZM71.7758 179.187C73.3651 179.187 74.5043 178.456 74.8981 176.867H73.787C73.4635 177.851 72.7322 178.273 71.7758 178.273C70.51 178.273 69.5255 177.514 69.5255 175.671C69.5255 173.829 70.51 173.069 71.7758 173.069C72.7181 173.069 73.4495 173.477 73.773 174.462H74.8981C74.5043 172.872 73.3651 172.155 71.7758 172.155C69.8489 172.155 68.4003 173.238 68.4003 175.671C68.4003 178.104 69.8489 179.187 71.7758 179.187ZM76.7297 179.047H77.7846V172.296H76.7297V179.047ZM77.7846 170.749V169.483H76.7297V170.749H77.7846ZM80.103 179.047H81.1579V176.206C81.1579 174.504 81.7627 173.069 83.3941 173.069C84.3646 173.069 85.2085 173.477 85.2085 174.926V179.047H86.2633V174.926C86.2774 172.971 85.3351 172.155 83.7458 172.155C82.3674 172.155 81.5657 172.703 81.1297 173.59L81.0172 172.296H80.103V179.047ZM88.0935 175.601C88.0935 177.992 89.4156 179.047 91.244 179.047C92.3129 179.047 93.1286 178.681 93.6349 177.879V178.723C93.6349 180.453 92.9036 181.086 91.6237 181.086C90.5407 181.086 89.8797 180.678 89.6687 179.989H88.6279C88.8389 181.269 89.8656 182 91.6096 182C93.438 182 94.6898 180.889 94.6898 178.85V172.296H93.7756L93.649 173.35C93.1427 172.535 92.3269 172.155 91.244 172.155C89.4156 172.155 88.0935 173.21 88.0935 175.601ZM91.469 173.069C92.552 173.069 93.3818 173.59 93.6349 174.813V176.374C93.3818 177.612 92.552 178.132 91.469 178.132C90.175 178.132 89.2186 177.387 89.2186 175.601C89.2186 173.815 90.175 173.069 91.469 173.069ZM100.526 175.671C100.526 178.104 101.961 179.187 103.916 179.187C105.449 179.187 106.602 178.54 107.038 177.106H105.899C105.533 177.936 104.802 178.273 103.916 178.273C102.425 178.273 101.736 177.274 101.652 175.924H107.179V175.01C107.109 173.154 105.688 172.155 103.916 172.155C101.961 172.155 100.526 173.238 100.526 175.671ZM101.708 175.01C101.891 173.871 102.58 173.069 103.916 173.069C105.111 173.069 106.04 173.772 106.04 175.01H101.708ZM109.007 179.047H110.062V169.483H109.007V179.047ZM112.38 179.047H113.435V172.296H112.38V179.047ZM113.435 170.749V169.483H112.38V170.749H113.435ZM116.33 173.139V176.993C116.33 178.568 116.949 179.047 118.159 179.047H119.382V178.132H118.426C117.568 178.132 117.385 177.978 117.385 176.867V173.139H119.312V172.296H117.385V170.27H116.33V172.296H115.121V173.139H116.33ZM120.923 180.594H121.767L122.329 177.64H120.923V180.594ZM131 179.187C132.744 179.187 133.813 178.681 133.813 177.204C133.813 174.588 129.34 175.938 129.34 174.054C129.34 173.421 129.917 173.069 130.972 173.069C132.069 173.069 132.519 173.435 132.603 174.152H133.658C133.56 172.9 132.73 172.155 130.972 172.155C129.397 172.155 128.257 172.732 128.257 174.096C128.257 176.951 132.73 175.657 132.73 177.246C132.73 177.893 132.21 178.273 130.986 178.273C129.734 178.273 129.256 177.879 129.186 177.12H128.089C128.159 178.414 129.003 179.187 131 179.187ZM135.224 175.671C135.224 178.104 136.658 179.187 138.613 179.187C140.146 179.187 141.3 178.54 141.736 177.106H140.596C140.231 177.936 139.499 178.273 138.613 178.273C137.122 178.273 136.433 177.274 136.349 175.924H141.876V175.01C141.806 173.154 140.385 172.155 138.613 172.155C136.658 172.155 135.224 173.238 135.224 175.671ZM136.405 175.01C136.588 173.871 137.277 173.069 138.613 173.069C139.809 173.069 140.737 173.772 140.737 175.01H136.405ZM146.362 179.187C147.445 179.187 148.261 178.808 148.767 177.992L148.894 179.047H149.808V169.483H148.753V173.322C148.247 172.521 147.431 172.155 146.362 172.155C144.534 172.155 143.212 173.238 143.212 175.671C143.212 178.104 144.534 179.187 146.362 179.187ZM144.337 175.671C144.337 173.829 145.293 173.069 146.587 173.069C147.67 173.069 148.5 173.59 148.753 174.827V176.529C148.5 177.753 147.67 178.273 146.587 178.273C145.293 178.273 144.337 177.514 144.337 175.671ZM158.795 179.187C159.878 179.187 160.694 178.808 161.2 177.992L161.327 179.047H162.241V169.483H161.186V173.322C160.68 172.521 159.864 172.155 158.795 172.155C156.967 172.155 155.645 173.238 155.645 175.671C155.645 178.104 156.967 179.187 158.795 179.187ZM156.77 175.671C156.77 173.829 157.726 173.069 159.02 173.069C160.103 173.069 160.933 173.59 161.186 174.827V176.529C160.933 177.753 160.103 178.273 159.02 178.273C157.726 178.273 156.77 177.514 156.77 175.671ZM167.448 179.187C169.403 179.187 170.824 178.104 170.824 175.671C170.824 173.238 169.403 172.155 167.448 172.155C165.493 172.155 164.073 173.238 164.073 175.671C164.073 178.104 165.493 179.187 167.448 179.187ZM165.198 175.671C165.198 173.829 166.154 173.069 167.448 173.069C168.742 173.069 169.698 173.829 169.698 175.671C169.698 177.514 168.742 178.273 167.448 178.273C166.154 178.273 165.198 177.514 165.198 175.671ZM176.162 175.671C176.162 178.104 177.597 179.187 179.552 179.187C181.085 179.187 182.238 178.54 182.674 177.106H181.535C181.169 177.936 180.438 178.273 179.552 178.273C178.061 178.273 177.372 177.274 177.287 175.924H182.815V175.01C182.744 173.154 181.324 172.155 179.552 172.155C177.597 172.155 176.162 173.238 176.162 175.671ZM177.343 175.01C177.526 173.871 178.215 173.069 179.552 173.069C180.747 173.069 181.675 173.772 181.675 175.01H177.343ZM184.643 179.047H185.697V172.296H184.643V179.047ZM185.697 170.749V169.483H184.643V170.749H185.697ZM190.505 179.187C191.855 179.187 192.643 178.653 193.093 177.767L193.192 179.047H194.106V172.296H193.051V175.137C193.051 176.838 192.46 178.273 190.857 178.273C189.901 178.273 189.071 177.865 189.071 176.417V172.296H188.016V176.417C188.002 178.372 188.93 179.187 190.505 179.187ZM198.919 179.187C200.663 179.187 201.732 178.681 201.732 177.204C201.732 174.588 197.26 175.938 197.26 174.054C197.26 173.421 197.836 173.069 198.891 173.069C199.988 173.069 200.438 173.435 200.523 174.152H201.578C201.479 172.9 200.649 172.155 198.891 172.155C197.316 172.155 196.177 172.732 196.177 174.096C196.177 176.951 200.649 175.657 200.649 177.246C200.649 177.893 200.129 178.273 198.905 178.273C197.654 178.273 197.175 177.879 197.105 177.12H196.008C196.078 178.414 196.922 179.187 198.919 179.187ZM204.69 179.047V176.206C204.69 174.504 205.239 173.069 206.687 173.069C207.559 173.069 208.319 173.477 208.319 174.926V179.047H209.374V176.206C209.374 174.504 209.922 173.069 211.371 173.069C212.243 173.069 213.002 173.477 213.002 174.926V179.047H214.057V174.926C214.071 172.971 213.199 172.155 211.736 172.155C210.386 172.155 209.641 172.76 209.233 173.73C208.938 172.633 208.178 172.155 207.053 172.155C205.801 172.155 205.07 172.675 204.648 173.519L204.549 172.296H203.635V179.047H204.69ZM219.259 179.187C221.214 179.187 222.635 178.104 222.635 175.671C222.635 173.238 221.214 172.155 219.259 172.155C217.304 172.155 215.884 173.238 215.884 175.671C215.884 178.104 217.304 179.187 219.259 179.187ZM217.009 175.671C217.009 173.829 217.965 173.069 219.259 173.069C220.553 173.069 221.509 173.829 221.509 175.671C221.509 177.514 220.553 178.273 219.259 178.273C217.965 178.273 217.009 177.514 217.009 175.671ZM227.118 179.187C228.201 179.187 229.017 178.808 229.523 177.992L229.65 179.047H230.564V169.483H229.509V173.322C229.003 172.521 228.187 172.155 227.118 172.155C225.29 172.155 223.968 173.238 223.968 175.671C223.968 178.104 225.29 179.187 227.118 179.187ZM225.093 175.671C225.093 173.829 226.05 173.069 227.343 173.069C228.426 173.069 229.256 173.59 229.509 174.827V176.529C229.256 177.753 228.426 178.273 227.343 178.273C226.05 178.273 225.093 177.514 225.093 175.671ZM237.47 173.139V176.993C237.47 178.568 238.089 179.047 239.298 179.047H240.522V178.132H239.565C238.707 178.132 238.525 177.978 238.525 176.867V173.139H240.451V172.296H238.525V170.27H237.47V172.296H236.26V173.139H237.47ZM241.711 175.671C241.711 178.104 243.145 179.187 245.1 179.187C246.633 179.187 247.787 178.54 248.223 177.106H247.083C246.718 177.936 245.986 178.273 245.1 178.273C243.61 178.273 242.92 177.274 242.836 175.924H248.363V175.01C248.293 173.154 246.872 172.155 245.1 172.155C243.145 172.155 241.711 173.238 241.711 175.671ZM242.892 175.01C243.075 173.871 243.764 173.069 245.1 173.069C246.296 173.069 247.224 173.772 247.224 175.01H242.892ZM251.246 179.047V176.206C251.246 174.504 251.795 173.069 253.243 173.069C254.115 173.069 254.875 173.477 254.875 174.926V179.047H255.93V176.206C255.93 174.504 256.478 173.069 257.927 173.069C258.799 173.069 259.558 173.477 259.558 174.926V179.047H260.613V174.926C260.627 172.971 259.755 172.155 258.293 172.155C256.942 172.155 256.197 172.76 255.789 173.73C255.494 172.633 254.734 172.155 253.609 172.155C252.357 172.155 251.626 172.675 251.204 173.519L251.105 172.296H250.191V179.047H251.246ZM262.932 181.86H263.987V178.02C264.493 178.822 265.309 179.187 266.378 179.187C268.206 179.187 269.528 178.104 269.528 175.671C269.528 173.238 268.206 172.155 266.378 172.155C265.295 172.155 264.479 172.535 263.973 173.35L263.846 172.296H262.932V181.86ZM263.987 174.813C264.24 173.59 265.07 173.069 266.153 173.069C267.447 173.069 268.403 173.829 268.403 175.671C268.403 177.514 267.447 178.273 266.153 178.273C265.07 178.273 264.24 177.753 263.987 176.515V174.813ZM274.243 179.187C276.198 179.187 277.618 178.104 277.618 175.671C277.618 173.238 276.198 172.155 274.243 172.155C272.288 172.155 270.867 173.238 270.867 175.671C270.867 178.104 272.288 179.187 274.243 179.187ZM271.993 175.671C271.993 173.829 272.949 173.069 274.243 173.069C275.537 173.069 276.493 173.829 276.493 175.671C276.493 177.514 275.537 178.273 274.243 178.273C272.949 178.273 271.993 177.514 271.993 175.671ZM279.444 172.296V179.047H280.499V175.615C280.499 174.279 281.624 173.28 282.96 173.28H283.143V172.155C281.962 172.155 281.033 172.675 280.471 173.716L280.358 172.296H279.444ZM30.3715 196.047H31.4263V189.296H30.3715V196.047ZM31.4263 187.749V186.483H30.3715V187.749H31.4263ZM33.7448 196.047H34.7996V193.206C34.7996 191.504 35.4044 190.069 37.0359 190.069C38.0064 190.069 38.8502 190.477 38.8502 191.926V196.047H39.9051V191.926C39.9192 189.971 38.9768 189.155 37.3875 189.155C36.0092 189.155 35.2075 189.703 34.7715 190.59L34.659 189.296H33.7448V196.047ZM45.1107 196.187C46.7 196.187 47.8393 195.456 48.2331 193.867H47.122C46.7985 194.851 46.0671 195.273 45.1107 195.273C43.8449 195.273 42.8604 194.514 42.8604 192.671C42.8604 190.829 43.8449 190.069 45.1107 190.069C46.0531 190.069 46.7844 190.477 47.1079 191.462H48.2331C47.8393 189.872 46.7 189.155 45.1107 189.155C43.1839 189.155 41.7352 190.238 41.7352 192.671C41.7352 195.104 43.1839 196.187 45.1107 196.187ZM50.0647 196.047H51.1195V189.296H50.0647V196.047ZM51.1195 187.749V186.483H50.0647V187.749H51.1195ZM56.0962 196.187C57.1792 196.187 57.9949 195.808 58.5012 194.992L58.6278 196.047H59.542V186.483H58.4872V190.322C57.9808 189.521 57.1651 189.155 56.0962 189.155C54.2678 189.155 52.9457 190.238 52.9457 192.671C52.9457 195.104 54.2678 196.187 56.0962 196.187ZM54.0709 192.671C54.0709 190.829 55.0273 190.069 56.3212 190.069C57.4042 190.069 58.234 190.59 58.4872 191.827V193.529C58.234 194.753 57.4042 195.273 56.3212 195.273C55.0273 195.273 54.0709 194.514 54.0709 192.671ZM61.8657 196.047H62.9206V189.296H61.8657V196.047ZM62.9206 187.749V186.483H61.8657V187.749H62.9206ZM67.8973 196.187C68.9802 196.187 69.796 195.808 70.3023 194.992L70.4289 196.047H71.3431V186.483H70.2882V190.322C69.7819 189.521 68.9662 189.155 67.8973 189.155C66.0689 189.155 64.7468 190.238 64.7468 192.671C64.7468 195.104 66.0689 196.187 67.8973 196.187ZM65.872 192.671C65.872 190.829 66.8284 190.069 68.1223 190.069C69.2053 190.069 70.0351 190.59 70.2882 191.827V193.529C70.0351 194.753 69.2053 195.273 68.1223 195.273C66.8284 195.273 65.872 194.514 65.872 192.671ZM76.1563 196.187C77.5065 196.187 78.2941 195.653 78.7441 194.767L78.8426 196.047H79.7568V189.296H78.702V192.137C78.702 193.838 78.1112 195.273 76.5079 195.273C75.5515 195.273 74.7217 194.865 74.7217 193.417V189.296H73.6668V193.417C73.6528 195.372 74.581 196.187 76.1563 196.187ZM82.0809 196.047H83.1357V193.206C83.1357 191.504 83.7405 190.069 85.372 190.069C86.3424 190.069 87.1863 190.477 87.1863 191.926V196.047H88.2412V191.926C88.2552 189.971 87.3129 189.155 85.7236 189.155C84.3453 189.155 83.5436 189.703 83.1076 190.59L82.9951 189.296H82.0809V196.047ZM91.1402 190.139V193.993C91.1402 195.568 91.7591 196.047 92.9686 196.047H94.1922V195.132H93.2359C92.3779 195.132 92.1951 194.978 92.1951 193.867V190.139H94.1219V189.296H92.1951V187.27H91.1402V189.296H89.9307V190.139H91.1402ZM102.368 196.187C103.718 196.187 104.506 195.653 104.956 194.767L105.054 196.047H105.969V189.296H104.914V192.137C104.914 193.838 104.323 195.273 102.72 195.273C101.763 195.273 100.933 194.865 100.933 193.417V189.296H99.8786V193.417C99.8646 195.372 100.793 196.187 102.368 196.187ZM108.869 190.139V193.993C108.869 195.568 109.488 196.047 110.698 196.047H111.921V195.132H110.965C110.107 195.132 109.924 194.978 109.924 193.867V190.139H111.851V189.296H109.924V187.27H108.869V189.296H107.66V190.139H108.869ZM117.608 196.047H118.663V186.483H117.608V196.047ZM122.809 196.187C124.131 196.187 124.933 195.681 125.369 194.964C125.482 195.737 125.89 196.047 126.902 196.047H127.212V195.048H126.902C126.551 195.048 126.354 194.837 126.354 194.218V191.462C126.354 189.872 125.51 189.155 123.569 189.155C121.726 189.155 120.84 189.943 120.784 191.265H121.825C121.895 190.463 122.345 190.069 123.583 190.069C124.694 190.069 125.257 190.463 125.327 191.433C125.144 192.924 120.559 191.574 120.559 194.317C120.559 195.836 121.712 196.187 122.809 196.187ZM121.642 194.303C121.642 192.77 124.188 193.473 125.327 192.601V193.177C125.327 194.373 124.596 195.343 123.091 195.343C122.092 195.343 121.642 194.921 121.642 194.303ZM128.695 186.483V196.047H129.609L129.735 195.006C130.228 195.808 131.015 196.187 132.07 196.187C133.856 196.187 135.291 195.104 135.291 192.671C135.291 190.238 133.856 189.155 132.07 189.155C131.029 189.155 130.242 189.521 129.749 190.308V186.483H128.695ZM129.749 191.827C130.003 190.59 130.832 190.069 131.915 190.069C133.209 190.069 134.166 190.829 134.166 192.671C134.166 194.514 133.209 195.273 131.915 195.273C130.832 195.273 130.003 194.753 129.749 193.529V191.827ZM140.006 196.187C141.961 196.187 143.381 195.104 143.381 192.671C143.381 190.238 141.961 189.155 140.006 189.155C138.051 189.155 136.63 190.238 136.63 192.671C136.63 195.104 138.051 196.187 140.006 196.187ZM137.755 192.671C137.755 190.829 138.712 190.069 140.006 190.069C141.3 190.069 142.256 190.829 142.256 192.671C142.256 194.514 141.3 195.273 140.006 195.273C138.712 195.273 137.755 194.514 137.755 192.671ZM145.207 189.296V196.047H146.262V192.615C146.262 191.279 147.387 190.28 148.723 190.28H148.906V189.155C147.724 189.155 146.796 189.675 146.233 190.716L146.121 189.296H145.207ZM150.176 192.671C150.176 195.104 151.61 196.187 153.565 196.187C155.098 196.187 156.251 195.54 156.687 194.106H155.548C155.183 194.936 154.451 195.273 153.565 195.273C152.074 195.273 151.385 194.274 151.301 192.924H156.828V192.01C156.758 190.154 155.337 189.155 153.565 189.155C151.61 189.155 150.176 190.238 150.176 192.671ZM151.357 192.01C151.54 190.871 152.229 190.069 153.565 190.069C154.761 190.069 155.689 190.772 155.689 192.01H151.357ZM162.169 192.671C162.169 195.104 163.603 196.187 165.558 196.187C167.091 196.187 168.245 195.54 168.681 194.106H167.542C167.176 194.936 166.445 195.273 165.558 195.273C164.068 195.273 163.378 194.274 163.294 192.924H168.821V192.01C168.751 190.154 167.331 189.155 165.558 189.155C163.603 189.155 162.169 190.238 162.169 192.671ZM163.35 192.01C163.533 190.871 164.222 190.069 165.558 190.069C166.754 190.069 167.682 190.772 167.682 192.01H163.35ZM171.226 190.139V193.993C171.226 195.568 171.845 196.047 173.054 196.047H174.278V195.132H173.322C172.464 195.132 172.281 194.978 172.281 193.867V190.139H174.208V189.296H172.281V187.27H171.226V189.296H170.016V190.139H171.226ZM182.623 196.187C183.706 196.187 184.521 195.808 185.028 194.992L185.154 196.047H186.068V186.483H185.014V190.322C184.507 189.521 183.692 189.155 182.623 189.155C180.794 189.155 179.472 190.238 179.472 192.671C179.472 195.104 180.794 196.187 182.623 196.187ZM180.597 192.671C180.597 190.829 181.554 190.069 182.848 190.069C183.931 190.069 184.76 190.59 185.014 191.827V193.529C184.76 194.753 183.931 195.273 182.848 195.273C181.554 195.273 180.597 194.514 180.597 192.671ZM191.275 196.187C193.23 196.187 194.651 195.104 194.651 192.671C194.651 190.238 193.23 189.155 191.275 189.155C189.32 189.155 187.9 190.238 187.9 192.671C187.9 195.104 189.32 196.187 191.275 196.187ZM189.025 192.671C189.025 190.829 189.982 190.069 191.275 190.069C192.569 190.069 193.526 190.829 193.526 192.671C193.526 194.514 192.569 195.273 191.275 195.273C189.982 195.273 189.025 194.514 189.025 192.671ZM196.477 196.047H197.531V186.483H196.477V196.047ZM202.733 196.187C204.688 196.187 206.109 195.104 206.109 192.671C206.109 190.238 204.688 189.155 202.733 189.155C200.778 189.155 199.358 190.238 199.358 192.671C199.358 195.104 200.778 196.187 202.733 196.187ZM200.483 192.671C200.483 190.829 201.439 190.069 202.733 190.069C204.027 190.069 204.983 190.829 204.983 192.671C204.983 194.514 204.027 195.273 202.733 195.273C201.439 195.273 200.483 194.514 200.483 192.671ZM207.934 189.296V196.047H208.989V192.615C208.989 191.279 210.114 190.28 211.45 190.28H211.633V189.155C210.452 189.155 209.524 189.675 208.961 190.716L208.849 189.296H207.934ZM212.903 192.671C212.903 195.104 214.338 196.187 216.293 196.187C217.826 196.187 218.979 195.54 219.415 194.106H218.276C217.91 194.936 217.179 195.273 216.293 195.273C214.802 195.273 214.113 194.274 214.028 192.924H219.556V192.01C219.485 190.154 218.065 189.155 216.293 189.155C214.338 189.155 212.903 190.238 212.903 192.671ZM214.084 192.01C214.267 190.871 214.957 190.069 216.293 190.069C217.488 190.069 218.416 190.772 218.416 192.01H214.084ZM226.444 196.047V193.206C226.444 191.504 226.992 190.069 228.441 190.069C229.313 190.069 230.072 190.477 230.072 191.926V196.047H231.127V193.206C231.127 191.504 231.676 190.069 233.124 190.069C233.996 190.069 234.756 190.477 234.756 191.926V196.047H235.811V191.926C235.825 189.971 234.953 189.155 233.49 189.155C232.14 189.155 231.394 189.76 230.986 190.73C230.691 189.633 229.932 189.155 228.806 189.155C227.555 189.155 226.823 189.675 226.401 190.519L226.303 189.296H225.389V196.047H226.444ZM239.958 196.187C241.28 196.187 242.081 195.681 242.517 194.964C242.63 195.737 243.038 196.047 244.05 196.047H244.36V195.048H244.05C243.699 195.048 243.502 194.837 243.502 194.218V191.462C243.502 189.872 242.658 189.155 240.717 189.155C238.875 189.155 237.989 189.943 237.932 191.265H238.973C239.043 190.463 239.494 190.069 240.731 190.069C241.842 190.069 242.405 190.463 242.475 191.433C242.292 192.924 237.707 191.574 237.707 194.317C237.707 195.836 238.861 196.187 239.958 196.187ZM238.79 194.303C238.79 192.77 241.336 193.473 242.475 192.601V193.177C242.475 194.373 241.744 195.343 240.239 195.343C239.24 195.343 238.79 194.921 238.79 194.303ZM245.351 192.601C245.351 194.992 246.673 196.047 248.501 196.047C249.57 196.047 250.386 195.681 250.892 194.879V195.723C250.892 197.453 250.161 198.086 248.881 198.086C247.798 198.086 247.137 197.678 246.926 196.989H245.885C246.096 198.269 247.123 199 248.867 199C250.695 199 251.947 197.889 251.947 195.85V189.296H251.033L250.906 190.35C250.4 189.535 249.584 189.155 248.501 189.155C246.673 189.155 245.351 190.21 245.351 192.601ZM248.726 190.069C249.809 190.069 250.639 190.59 250.892 191.813V193.374C250.639 194.612 249.809 195.132 248.726 195.132C247.432 195.132 246.476 194.387 246.476 192.601C246.476 190.815 247.432 190.069 248.726 190.069ZM254.271 196.047H255.325V193.206C255.325 191.504 255.93 190.069 257.562 190.069C258.532 190.069 259.376 190.477 259.376 191.926V196.047H260.431V191.926C260.445 189.971 259.503 189.155 257.913 189.155C256.535 189.155 255.733 189.703 255.297 190.59L255.185 189.296H254.271V196.047ZM264.582 196.187C265.904 196.187 266.705 195.681 267.141 194.964C267.254 195.737 267.662 196.047 268.674 196.047H268.984V195.048H268.674C268.323 195.048 268.126 194.837 268.126 194.218V191.462C268.126 189.872 267.282 189.155 265.341 189.155C263.499 189.155 262.613 189.943 262.556 191.265H263.597C263.667 190.463 264.118 190.069 265.355 190.069C266.466 190.069 267.029 190.463 267.099 191.433C266.916 192.924 262.331 191.574 262.331 194.317C262.331 195.836 263.485 196.187 264.582 196.187ZM263.414 194.303C263.414 192.77 265.96 193.473 267.099 192.601V193.177C267.099 194.373 266.368 195.343 264.863 195.343C263.864 195.343 263.414 194.921 263.414 194.303ZM32.1999 213.187C33.522 213.187 34.3236 212.681 34.7596 211.964C34.8722 212.737 35.28 213.047 36.2927 213.047H36.6021V212.048H36.2927C35.9411 212.048 35.7442 211.837 35.7442 211.218V208.462C35.7442 206.872 34.9003 206.155 32.9594 206.155C31.1169 206.155 30.2308 206.943 30.1746 208.265H31.2154C31.2857 207.463 31.7358 207.069 32.9734 207.069C34.0845 207.069 34.6471 207.463 34.7174 208.433C34.5346 209.924 29.9495 208.574 29.9495 211.317C29.9495 212.836 31.1028 213.187 32.1999 213.187ZM31.0325 211.303C31.0325 209.77 33.5782 210.473 34.7174 209.601V210.177C34.7174 211.373 33.9861 212.343 32.4812 212.343C31.4826 212.343 31.0325 211.921 31.0325 211.303ZM38.085 213.047H39.1399V203.483H38.085V213.047ZM41.4583 213.047H42.5132V206.296H41.4583V213.047ZM42.5132 204.749V203.483H41.4583V204.749H42.5132ZM47.4899 213.187C48.5588 213.187 49.3745 212.822 49.8808 212.02V215.86H50.9357V206.296H50.0215L49.8949 207.35C49.3886 206.535 48.5728 206.155 47.4899 206.155C45.6615 206.155 44.3394 207.238 44.3394 209.671C44.3394 212.104 45.6615 213.187 47.4899 213.187ZM45.4646 209.671C45.4646 207.829 46.421 207.069 47.7149 207.069C48.7979 207.069 49.6277 207.59 49.8808 208.813V210.515C49.6277 211.753 48.7979 212.273 47.7149 212.273C46.421 212.273 45.4646 211.514 45.4646 209.671ZM55.7489 213.187C57.0991 213.187 57.8867 212.653 58.3367 211.767L58.4352 213.047H59.3494V206.296H58.2945V209.137C58.2945 210.838 57.7038 212.273 56.1005 212.273C55.1441 212.273 54.3143 211.865 54.3143 210.417V206.296H53.2594V210.417C53.2454 212.372 54.1736 213.187 55.7489 213.187ZM63.5019 213.187C64.8239 213.187 65.6256 212.681 66.0616 211.964C66.1741 212.737 66.582 213.047 67.5947 213.047H67.9041V212.048H67.5947C67.243 212.048 67.0461 211.837 67.0461 211.218V208.462C67.0461 206.872 66.2023 206.155 64.2613 206.155C62.4189 206.155 61.5328 206.943 61.4766 208.265H62.5173C62.5877 207.463 63.0377 207.069 64.2754 207.069C65.3865 207.069 65.9491 207.463 66.0194 208.433C65.8366 209.924 61.2515 208.574 61.2515 211.317C61.2515 212.836 62.4048 213.187 63.5019 213.187ZM62.3345 211.303C62.3345 209.77 64.8802 210.473 66.0194 209.601V210.177C66.0194 211.373 65.2881 212.343 63.7832 212.343C62.7846 212.343 62.3345 211.921 62.3345 211.303ZM69.2464 213.047H70.7232V211.57H69.2464V213.047ZM80.8127 213.187C83.1334 213.187 84.5961 212.104 84.5961 208.687V203.483H83.471V208.687C83.471 211.457 82.3598 212.132 80.8127 212.132C79.2797 212.132 78.1686 211.457 78.1686 208.687V203.483H77.0434V208.687C77.0434 212.104 78.5061 213.187 80.8127 213.187ZM87.6378 207.139V210.993C87.6378 212.568 88.2567 213.047 89.4662 213.047H90.6898V212.132H89.7334C88.8755 212.132 88.6927 211.978 88.6927 210.867V207.139H90.6195V206.296H88.6927V204.27H87.6378V206.296H86.4283V207.139H87.6378ZM95.884 209.671C95.884 212.104 97.3185 213.187 99.2735 213.187C100.807 213.187 101.96 212.54 102.396 211.106H101.257C100.891 211.936 100.16 212.273 99.2735 212.273C97.7827 212.273 97.0935 211.274 97.0091 209.924H102.537V209.01C102.466 207.154 101.046 206.155 99.2735 206.155C97.3185 206.155 95.884 207.238 95.884 209.671ZM97.0654 209.01C97.2482 207.871 97.9374 207.069 99.2735 207.069C100.469 207.069 101.397 207.772 101.397 209.01H97.0654ZM104.364 213.047H105.419V210.206C105.419 208.504 106.024 207.069 107.656 207.069C108.626 207.069 109.47 207.477 109.47 208.926V213.047H110.525V208.926C110.539 206.971 109.596 206.155 108.007 206.155C106.629 206.155 105.827 206.703 105.391 207.59L105.279 206.296H104.364V213.047ZM112.847 213.047H113.902V206.296H112.847V213.047ZM113.902 204.749V203.483H112.847V204.749H113.902ZM117.275 213.047V210.206C117.275 208.504 117.824 207.069 119.273 207.069C120.145 207.069 120.904 207.477 120.904 208.926V213.047H121.959V210.206C121.959 208.504 122.507 207.069 123.956 207.069C124.828 207.069 125.588 207.477 125.588 208.926V213.047H126.642V208.926C126.656 206.971 125.784 206.155 124.322 206.155C122.971 206.155 122.226 206.76 121.818 207.73C121.523 206.633 120.763 206.155 119.638 206.155C118.386 206.155 117.655 206.675 117.233 207.519L117.135 206.296H116.22V213.047H117.275ZM134.795 213.187C136.117 213.187 136.918 212.681 137.354 211.964C137.467 212.737 137.875 213.047 138.887 213.047H139.197V212.048H138.887C138.536 212.048 138.339 211.837 138.339 211.218V208.462C138.339 206.872 137.495 206.155 135.554 206.155C133.712 206.155 132.826 206.943 132.769 208.265H133.81C133.88 207.463 134.33 207.069 135.568 207.069C136.679 207.069 137.242 207.463 137.312 208.433C137.129 209.924 132.544 208.574 132.544 211.317C132.544 212.836 133.698 213.187 134.795 213.187ZM133.627 211.303C133.627 209.77 136.173 210.473 137.312 209.601V210.177C137.312 211.373 136.581 212.343 135.076 212.343C134.077 212.343 133.627 211.921 133.627 211.303ZM143.338 213.187C144.421 213.187 145.237 212.808 145.743 211.992L145.87 213.047H146.784V203.483H145.729V207.322C145.223 206.521 144.407 206.155 143.338 206.155C141.51 206.155 140.187 207.238 140.187 209.671C140.187 212.104 141.51 213.187 143.338 213.187ZM141.313 209.671C141.313 207.829 142.269 207.069 143.563 207.069C144.646 207.069 145.476 207.59 145.729 208.827V210.529C145.476 211.753 144.646 212.273 143.563 212.273C142.269 212.273 141.313 211.514 141.313 209.671ZM154.167 213.047V210.206C154.167 208.504 154.716 207.069 156.165 207.069C157.037 207.069 157.796 207.477 157.796 208.926V213.047H158.851V210.206C158.851 208.504 159.399 207.069 160.848 207.069C161.72 207.069 162.48 207.477 162.48 208.926V213.047H163.534V208.926C163.549 206.971 162.677 206.155 161.214 206.155C159.864 206.155 159.118 206.76 158.71 207.73C158.415 206.633 157.655 206.155 156.53 206.155C155.279 206.155 154.547 206.675 154.125 207.519L154.027 206.296H153.113V213.047H154.167ZM165.853 213.047H166.908V206.296H165.853V213.047ZM166.908 204.749V203.483H165.853V204.749H166.908ZM169.226 213.047H170.281V210.206C170.281 208.504 170.886 207.069 172.518 207.069C173.488 207.069 174.332 207.477 174.332 208.926V213.047H175.387V208.926C175.401 206.971 174.458 206.155 172.869 206.155C171.491 206.155 170.689 206.703 170.253 207.59L170.141 206.296H169.226V213.047ZM177.709 213.047H178.764V206.296H177.709V213.047ZM178.764 204.749V203.483H177.709V204.749H178.764ZM182.137 213.047V210.206C182.137 208.504 182.686 207.069 184.134 207.069C185.006 207.069 185.766 207.477 185.766 208.926V213.047H186.821V210.206C186.821 208.504 187.369 207.069 188.818 207.069C189.69 207.069 190.449 207.477 190.449 208.926V213.047H191.504V208.926C191.518 206.971 190.646 206.155 189.184 206.155C187.833 206.155 187.088 206.76 186.68 207.73C186.385 206.633 185.625 206.155 184.5 206.155C183.248 206.155 182.517 206.675 182.095 207.519L181.997 206.296H181.082V213.047H182.137ZM196.984 206.296L199.755 213.047H201.007L203.777 206.296H202.638L200.388 211.992L198.123 206.296H196.984ZM204.486 209.671C204.486 212.104 205.921 213.187 207.876 213.187C209.409 213.187 210.562 212.54 210.998 211.106H209.859C209.493 211.936 208.762 212.273 207.876 212.273C206.385 212.273 205.696 211.274 205.611 209.924H211.139V209.01C211.069 207.154 209.648 206.155 207.876 206.155C205.921 206.155 204.486 207.238 204.486 209.671ZM205.668 209.01C205.851 207.871 206.54 207.069 207.876 207.069C209.071 207.069 210 207.772 210 209.01H205.668ZM212.967 213.047H214.022V210.206C214.022 208.504 214.626 207.069 216.258 207.069C217.228 207.069 218.072 207.477 218.072 208.926V213.047H219.127V208.926C219.141 206.971 218.199 206.155 216.61 206.155C215.231 206.155 214.43 206.703 213.994 207.59L213.881 206.296H212.967V213.047ZM221.45 213.047H222.504V206.296H221.45V213.047ZM222.504 204.749V203.483H221.45V204.749H222.504ZM226.651 213.187C227.973 213.187 228.775 212.681 229.211 211.964C229.323 212.737 229.731 213.047 230.744 213.047H231.053V212.048H230.744C230.392 212.048 230.196 211.837 230.196 211.218V208.462C230.196 206.872 229.352 206.155 227.411 206.155C225.568 206.155 224.682 206.943 224.626 208.265H225.667C225.737 207.463 226.187 207.069 227.425 207.069C228.536 207.069 229.098 207.463 229.169 208.433C228.986 209.924 224.401 208.574 224.401 211.317C224.401 212.836 225.554 213.187 226.651 213.187ZM225.484 211.303C225.484 209.77 228.03 210.473 229.169 209.601V210.177C229.169 211.373 228.437 212.343 226.933 212.343C225.934 212.343 225.484 211.921 225.484 211.303ZM233.591 213.047V210.206C233.591 208.504 234.14 207.069 235.588 207.069C236.46 207.069 237.22 207.477 237.22 208.926V213.047H238.275V210.206C238.275 208.504 238.823 207.069 240.272 207.069C241.144 207.069 241.903 207.477 241.903 208.926V213.047H242.958V208.926C242.972 206.971 242.1 206.155 240.638 206.155C239.287 206.155 238.542 206.76 238.134 207.73C237.839 206.633 237.079 206.155 235.954 206.155C234.702 206.155 233.971 206.675 233.549 207.519L233.451 206.296H232.536V213.047H233.591ZM245.136 214.594H245.98L246.543 211.64H245.136V214.594Z" fill="white"/>
<path d="M74.8853 31.9857H37.5632C34.9903 31.9857 32.8979 34.0803 32.8979 36.6558V69.3468C32.8979 71.9224 34.9903 74.0169 37.5632 74.0169H74.8853C77.4582 74.0169 79.5505 71.9224 79.5505 69.3468V36.6558C79.5505 34.0803 77.4582 31.9857 74.8853 31.9857ZM74.8876 45.9961C74.8853 45.9961 74.8853 45.9961 74.8876 45.9961H73.8006L67.5795 36.6558H74.8853L74.8876 45.9961ZM50.4743 45.9961L44.2532 36.6558H50.311L56.5322 45.9961H50.4743ZM62.1375 45.9961L55.9163 36.6558H61.9742L68.1953 45.9961H62.1375ZM37.5632 36.6558H38.6479L44.869 45.9961H37.5632V36.6558ZM37.5632 69.3468V50.6662H74.8853L74.8899 69.3468H37.5632Z" fill="white"/>
</svg>
